<?xml version="1.0" encoding="UTF-8" standalone="no"?>
<svg
   xmlns="http://www.w3.org/2000/svg"
   width="307"
   height="92"
   viewBox="0 100 460.49043 174.8">
  <g
     aria-label="Hi, I'm Lena."
     style="font-style:normal;font-variant:normal;font-weight:normal;font-stretch:normal;font-size:106.40000153px;line-height:1.25;font-family:'Miriam Libre';-inkscape-font-specification:'Miriam Libre';letter-spacing:0px;word-spacing:0px;fill:#11111f;fill-opacity:0.94117647;stroke:none;stroke-width:1.89999998"
     id="text830">
    <path
       d="m 53.497758,126.63617 v 0 q 0.445313,0.54427 0.445313,1.23698 0,0.64323 -0.544271,1.13802 -15.783855,15.14063 -30.132813,42.30469 5.986979,-0.74219 8.510416,-0.34635 2.572917,0.34635 3.265625,1.08854 1.83073,1.43489 1.088542,3.66146 -0.247396,0.69271 -0.890625,0.98958 -0.59375,0.29688 -1.286458,0.0495 -0.643229,-0.2474 -0.940104,-0.84115 -0.296875,-0.59375 -0.09896,-1.23698 -0.197916,-0.14843 -1.138021,-0.29687 -0.890625,-0.19792 -2.919271,-0.14844 -1.979166,0 -5.393229,0.44531 -0.989583,0.14844 -2.078125,0.34636 -7.372396,14.89323 -12.4687502,31.36979 -5.0963543,16.47656 -6.6302085,33.25 -0.098958,0.69271 -0.59375,1.08854 -0.4453125,0.44532 -1.0885417,0.44532 -0.0494792,0 -0.1484375,0 -0.69270835,-0.099 -1.13802086,-0.64323 -0.44531254,-0.49479 -0.39583334,-1.1875 1.92968754,-19.09896 7.2239585,-35.42709 5.2942706,-16.32812 11.1822916,-28.15364 -6.679687,1.38541 -14.4479167,3.66145 -11.6770836,3.41407 -21.6718753,7.6198 -5.591146,12.51823 -10.192709,25.03646 -0.544271,1.13802 -1.583333,1.13802 -0.296875,0 -0.544271,-0.099 -0.692708,-0.29688 -0.989583,-0.89063 -0.247396,-0.59375 -0.04948,-1.28646 4.057292,-10.98437 8.807292,-21.96875 -10.192708,4.60157 -16.575521,9.20313 -0.494792,0.34635 -0.989583,0.34635 -0.791667,0 -1.335938,-0.6927 -0.445312,-0.59375 -0.346354,-1.28646 0.148438,-0.64323 0.692708,-1.08854 7.76823,-5.54167 20.583334,-10.98438 10.934896,-24.39323 25.283855,-48.19271 0.3958334,-0.59375 1.0390625,-0.74219 0.6432292,-0.19791 1.2864584,0.19792 0.59375,0.34635 0.7421875,1.03906 0.1484375,0.64323 -0.1979166,1.23698 -13.260417,22.01823 -23.6510418,44.58073 8.6093747,-3.36458 18.2083333,-6.23437 9.7473957,-2.91927 17.7630217,-4.35417 14.744792,-28.69792 31.963542,-45.42188 0.494792,-0.49479 1.138021,-0.44531 0.692708,0 1.236979,0.49479 z"
       style="font-style:normal;font-variant:normal;font-weight:normal;font-stretch:normal;font-size:101.33333588px;font-family:'Visual Hollow Script';-inkscape-font-specification:'Visual Hollow Script';fill:#11111f;fill-opacity:0.94117647;stroke-width:1.89999998"
       id="path905" />
    <path
       d="m 74.526407,181.45909 v 0 q 0.544271,0.44531 0.59375,1.13802 0.09896,0.64323 -0.346354,1.23698 -3.908854,4.55208 -11.083333,7.91667 -7.17448,3.3151 -12.963542,3.90885 -0.742188,0.0495 -1.335938,0.0495 -2.96875,0 -4.403646,-1.28646 -1.632812,-1.48437 -1.682292,-4.30468 0.09896,-6.03646 5.690105,-11.57813 0.494791,-0.44531 1.138021,-0.44531 0.692708,0 1.236979,0.54427 0.445312,0.49479 0.445312,1.1875 0,0.64323 -0.544271,1.1875 -2.523437,2.52344 -3.611979,4.99739 -1.039062,2.42448 -0.989583,4.0573 0.04948,1.33593 0.544271,1.83073 0.04948,0.0495 0.346354,0.19791 0.296875,0.14844 0.989583,0.2474 0.692709,0.0495 1.880209,-0.0495 5.195312,-0.54427 11.726562,-3.5625 6.58073,-3.06771 9.994792,-7.02604 0.445313,-0.54427 1.088542,-0.59375 0.692708,-0.099 1.286458,0.34635 z M 53.646198,170.07888 v 0 q -0.445312,-0.29687 -0.643229,-0.79166 -0.692708,-1.97917 0.395834,-3.90886 1.088541,-1.88021 3.117187,-2.375 0.692709,-0.099 1.236979,0.29688 0.544271,0.34635 0.742188,1.03906 0.148437,1.23698 -0.890625,1.83073 0.296875,0.24739 0.395833,0.64323 0.494792,1.83073 -1.088541,3.11718 -0.841146,0.59375 -1.78125,0.59375 -0.791667,0 -1.484376,-0.44531 z"
       style="font-style:normal;font-variant:normal;font-weight:normal;font-stretch:normal;font-size:101.33333588px;font-family:'Visual Hollow Script';-inkscape-font-specification:'Visual Hollow Script';fill:#11111f;fill-opacity:0.94117647;stroke-width:1.89999998"
       id="path907" />
    <path
       d="m 85.609743,189.82107 v 0 q 0.692708,0.0495 1.138021,0.54427 0.494791,0.49479 0.494791,1.1875 -0.346354,2.67188 -3.018229,5.69011 -2.622396,3.01822 -5.046875,3.85937 -0.197917,0.0495 -0.445313,0.0495 -1.088541,0 -1.632812,-1.23698 -0.148438,-0.69271 0.148437,-1.28646 0.346355,-0.54427 1.039063,-0.79166 0.890625,-0.29688 2.177083,-1.53386 1.286459,-1.1875 2.276042,-2.57292 1.039063,-1.43489 1.138021,-2.27604 0,-0.74218 0.494792,-1.1875 0.494791,-0.44531 1.236979,-0.44531 z"
       style="font-style:normal;font-variant:normal;font-weight:normal;font-stretch:normal;font-size:101.33333588px;font-family:'Visual Hollow Script';-inkscape-font-specification:'Visual Hollow Script';fill:#11111f;fill-opacity:0.94117647;stroke-width:1.89999998"
       id="path909" />
    <path
       d="m 170.36755,140.78721 v 0 q 1.73177,5.09636 -3.71094,18.3073 -4.45312,10.78646 -12.8151,25.63021 -7.42188,13.0625 -14.64584,23.84895 -7.17448,10.78646 -10.34114,13.60678 -0.54427,0.39583 -1.08855,0.39583 -0.74218,0 -1.28645,-0.59375 -0.44532,-0.59375 -0.39584,-1.28646 0.0495,-0.64323 0.59375,-1.08854 2.6224,-2.32552 9.54948,-12.71615 6.97657,-10.34114 14.69532,-23.84896 8.90625,-15.78385 13.16145,-26.57031 4.25521,-10.78646 3.11719,-14.64583 -0.34635,-1.23698 -1.68229,-1.28646 -6.1849,-0.19792 -12.86458,3.3151 -6.63021,3.46354 -11.72657,8.75782 -5.09635,5.29427 -6.58073,10.4401 -1.58333,5.9375 3.95834,8.5599 0.59375,0.34635 0.79166,0.98958 0.2474,0.59375 -0.0495,1.23698 -0.29688,0.64323 -0.94011,0.89062 -0.64323,0.19792 -1.28646,-0.099 -7.76823,-3.90886 -5.6901,-12.41928 2.57292,-8.90625 13.35937,-17.16927 11.28125,-8.26302 21.27605,-7.86718 3.46354,0.29687 4.60156,3.61197 z"
       style="font-style:normal;font-variant:normal;font-weight:normal;font-stretch:normal;font-size:101.33333588px;font-family:'Visual Hollow Script';-inkscape-font-specification:'Visual Hollow Script';fill:#11111f;fill-opacity:0.94117647;stroke-width:1.89999998"
       id="path911" />
    <path
       d="m 184.2712,148.40701 v 0 q 0.64323,0.29687 0.84115,0.9401 0.2474,0.64323 -0.0495,1.28646 l -4.65104,9.69792 q -0.59375,0.9401 -1.53386,0.9401 -0.34635,0 -0.74218,-0.14844 -0.59375,-0.34635 -0.84115,-0.9401 -0.19792,-0.64323 0.099,-1.28646 l 4.65104,-9.69792 q 0.34636,-0.64323 0.94011,-0.84114 0.64322,-0.2474 1.28645,0.0495 z"
       style="font-style:normal;font-variant:normal;font-weight:normal;font-stretch:normal;font-size:101.33333588px;font-family:'Visual Hollow Script';-inkscape-font-specification:'Visual Hollow Script';fill:#11111f;fill-opacity:0.94117647;stroke-width:1.89999998"
       id="path913" />
    <path
       d="m 248.54464,181.50857 v 0 q 0.54427,0.49479 0.54427,1.1875 0.0495,0.69271 -0.44531,1.1875 -4.55209,4.75 -9.64844,6.97656 -5.04688,2.17709 -8.21354,2.17709 -0.14844,0 -0.29688,0 -4.89844,-0.39584 -6.77865,-2.47396 -1.8802,-2.12761 -2.42447,-4.00781 -0.19792,-0.34636 -0.39584,-0.74219 -0.14844,-0.44531 -0.29687,-0.64323 -0.0495,0 -0.0495,0 -0.64323,0.14844 -1.97917,1.1875 -1.33594,0.98958 -2.42448,1.92969 -3.21614,2.96875 -5.59114,3.61198 -0.89063,0.099 -1.48438,-0.0495 -0.59375,-0.19792 -0.89062,-0.4948 -0.94011,-0.74218 -1.23698,-1.92968 -0.29688,-1.23698 -0.34636,-2.6224 -0.099,-1.33594 -0.34635,-2.27604 -0.19792,-0.9401 -0.69271,-1.13802 -0.0495,0 -0.2474,0.0495 -0.19791,0.0495 -0.59375,0.24739 -0.39583,0.19792 -1.03906,0.64323 -0.64323,0.44532 -1.58333,1.23698 -2.82031,2.47396 -5.88802,5.64063 -3.26563,3.36458 -5.29427,5.04687 -1.97917,1.73177 -3.41407,1.73177 -0.39583,0 -0.79166,-0.14843 0,0 0,0 -1.03907,-0.39584 -1.38542,-1.4349 -0.099,-0.2474 -0.14844,-0.79167 -0.0495,-0.49479 0.19792,-1.48437 0.19792,-1.03906 0.89062,-2.77084 0.64323,-1.73177 2.02865,-4.40364 3.3151,-6.38281 5.83854,-10.09375 0.39584,-0.59375 1.03907,-0.69271 0.6927,-0.14844 1.28645,0.2474 0.59375,0.39583 0.69271,1.08854 0.14844,0.64323 -0.24739,1.23698 -2.32552,3.41406 -5.44271,9.35156 -1.88021,3.76042 -2.42448,5.39323 1.08854,-0.94011 2.375,-2.22656 1.28646,-1.28646 2.42448,-2.42448 4.35416,-4.50261 7.37239,-6.82813 3.01823,-2.375 5.19532,-1.83073 2.22656,0.69271 2.82031,2.67188 0.64323,1.92969 0.69271,3.71094 0.0495,0.44531 0.099,1.03906 0.099,0.54427 0.19791,0.9401 0.64323,-0.34635 1.78125,-1.1875 1.13802,-0.89062 2.02865,-1.63281 4.10677,-3.76042 6.53125,-3.90885 0,0 0,0 1.1875,0 1.92969,0.59375 0.74218,0.54427 1.1875,1.33593 0.44531,0.79167 0.6927,1.58334 0.54427,1.63281 1.73178,2.86979 1.23697,1.23698 4.55208,1.48437 2.62239,0.099 7.125,-1.92968 4.5026,-2.07813 8.41146,-6.13542 0.49479,-0.49479 1.13802,-0.49479 0.69271,-0.0495 1.23698,0.39583 z"
       style="font-style:normal;font-variant:normal;font-weight:normal;font-stretch:normal;font-size:101.33333588px;font-family:'Visual Hollow Script';-inkscape-font-specification:'Visual Hollow Script';fill:#11111f;fill-opacity:0.94117647;stroke-width:1.89999998"
       id="path915" />
    <path
       d="m 376.49776,181.11274 v 0 q 0.19791,0.69271 -0.099,1.28646 -0.29688,0.59375 -0.98958,0.84114 -6.92709,2.32552 -15.4375,6.03646 -8.51042,3.66146 -17.86198,7.96615 -10.04427,4.60156 -19.94011,8.85677 -9.84635,4.30468 -18.50521,7.125 -10.24218,3.36458 -16.625,3.36458 -6.33333,0 -9.15364,-3.3151 -3.01823,-3.36459 -1.97917,-9.30209 0.84115,-4.75 4.45312,-11.52864 3.31511,-6.23438 7.91667,-12.96355 4.60156,-6.72916 9.20313,-13.0625 6.33333,-8.65885 10.58854,-15.38802 2.57292,-4.25521 3.16667,-6.18489 0.64322,-1.97917 0.44531,-2.42448 -0.14844,-0.74219 0.19791,-1.28646 0.39584,-0.59375 1.08855,-0.74219 0.6927,-0.14844 1.23698,0.2474 0.59375,0.34635 0.74218,1.03906 0.69271,3.26562 -3.21614,9.7474 -3.85938,6.48177 -11.52865,16.92187 -4.55208,6.28386 -9.10417,12.96354 -4.5026,6.63021 -7.76822,12.71615 -6.72917,12.71615 -2.91928,17.02083 4.25521,4.79948 22.21615,-0.98958 8.51042,-2.82031 18.30729,-7.07552 9.79688,-4.20573 19.79167,-8.80729 9.40104,-4.35417 17.96094,-8.06511 8.60937,-3.71093 15.68489,-6.03646 0.69271,-0.24739 1.28646,0.099 0.59375,0.29688 0.84115,0.94011 z"
       style="font-style:normal;font-variant:normal;font-weight:normal;font-stretch:normal;font-size:101.33333588px;font-family:'Visual Hollow Script';-inkscape-font-specification:'Visual Hollow Script';fill:#11111f;fill-opacity:0.94117647;stroke-width:1.89999998"
       id="path917" />
    <path
       d="m 408.06548,181.36013 v 0 q 0.59375,0.39584 0.74218,1.08854 0.14844,0.64323 -0.19791,1.23698 -1.6823,2.47396 -4.65105,4.30469 -2.91927,1.78125 -5.14583,2.72136 -7.22396,3.16666 -13.80469,3.61197 -0.69271,0.0495 -1.38541,0.0495 -5.88802,0 -8.41146,-3.0677 -1.78125,-2.42448 -1.53386,-5.59115 0.2474,-3.16667 1.63282,-5.73958 3.21614,-5.44271 8.21354,-4.9974 1.13802,0.14844 1.48437,1.23698 0.0495,0.14844 0.0495,0.49479 0.0495,0.34635 -0.14844,1.03906 -0.14843,0.69271 -0.6927,1.88021 -0.4948,1.1875 -1.48438,3.11719 -0.79167,1.4349 -2.07812,3.41406 -1.23698,1.92969 -2.6224,3.21615 1.83073,1.88021 6.77865,1.58333 6.58073,-0.54427 12.76562,-3.36458 6.1849,-2.82031 8.16406,-5.69011 0.39584,-0.59375 1.03907,-0.74218 0.69271,-0.14844 1.28646,0.19791 z m -29.78646,0.2474 v 0 q -1.03907,1.92969 -1.23698,3.85937 1.08854,-1.48437 2.1276,-3.3151 1.03906,-1.83073 1.78125,-3.41406 -1.08854,0.64323 -1.78125,1.53385 -0.64323,0.84115 -0.89062,1.33594 z"
       style="font-style:normal;font-variant:normal;font-weight:normal;font-stretch:normal;font-size:101.33333588px;font-family:'Visual Hollow Script';-inkscape-font-specification:'Visual Hollow Script';fill:#11111f;fill-opacity:0.94117647;stroke-width:1.89999998"
       id="path919" />
    <path
       d="m 453.43788,181.65701 v 0 q 0.49479,0.54427 0.44531,1.23698 -0.0495,0.64323 -0.54427,1.13802 -6.03646,5.34375 -10.48958,7.22396 -4.45313,1.83073 -7.42188,1.58333 -2.91927,-0.29688 -4.5026,-1.33594 -4.55208,-3.01823 -4.40365,-8.55989 -2.02864,0.89062 -5.04687,2.62239 -2.96875,1.68229 -5.39323,3.16667 -4.89844,2.91927 -7.27344,4.15625 -2.32552,1.23698 -3.41406,1.23698 -1.68229,0 -2.47396,-1.58334 -0.14844,-0.29687 -0.24739,-1.13802 -0.14844,-0.84114 0.29687,-2.62239 0.44531,-1.78125 1.83073,-4.94792 1.08854,-2.27604 2.22656,-4.25521 1.13802,-2.02864 1.88021,-2.82031 0.49479,-0.54427 1.13802,-0.54427 0.69271,-0.0495 1.23698,0.44531 0.54427,0.49479 0.54427,1.1875 0.0495,0.64323 -0.44531,1.1875 -0.39583,0.44531 -1.38542,2.12761 -0.98958,1.63281 -2.02864,3.85937 -1.83073,4.20573 -1.92969,5.49219 1.38542,-0.64323 3.71094,-1.97917 2.375,-1.38541 4.60156,-2.72135 7.57031,-4.55209 10.6875,-5.88802 3.16667,-1.38542 4.25521,-0.39584 1.08854,0.89063 0.74218,2.375 -0.39583,1.73177 0.19792,3.66146 0.59375,1.88021 2.42448,3.01823 0.94011,0.69271 3.16667,0.89063 2.27604,0.14843 6.03646,-1.48438 3.80989,-1.63281 9.20312,-6.43229 0.54427,-0.49479 1.1875,-0.44531 0.69271,0.0495 1.1875,0.54427 z"
       style="font-style:normal;font-variant:normal;font-weight:normal;font-stretch:normal;font-size:101.33333588px;font-family:'Visual Hollow Script';-inkscape-font-specification:'Visual Hollow Script';fill:#11111f;fill-opacity:0.94117647;stroke-width:1.89999998"
       id="path921" />
    <path
       d="m 495.69309,181.50857 v 0 q 0.54427,0.44531 0.59375,1.13802 0.099,0.64323 -0.29688,1.23698 -2.22656,2.67188 -6.8776,4.84896 -4.60156,2.17708 -9.54948,2.82031 -4.89844,0.59375 -7.96615,-1.33594 -1.23697,-0.79166 -1.97916,-2.375 -0.69271,-1.63281 -0.19792,-4.2552 -0.34635,0.24739 -0.69271,0.54427 0.19792,0.64323 0.34636,1.38541 0.099,0.69271 -0.29688,1.28646 -0.34635,0.54427 -1.03906,0.69271 -0.69271,0.099 -1.28646,-0.2474 -0.54427,-0.39583 -0.69271,-1.08854 0,-0.0495 -0.0495,-0.099 -4.55208,2.67188 -9.84635,4.9974 -0.64323,0.29687 -1.78125,0.69271 -1.13802,0.39583 -2.375,0.39583 -1.83073,0.099 -3.11719,-1.53385 -1.83073,-2.82032 0.54427,-6.53125 2.02865,-3.01823 5.69011,-5.04688 3.71093,-2.02864 7.52083,-1.43489 1.03906,0.14843 2.375,0.9401 1.38542,0.74219 2.57292,2.42448 2.77083,-1.97917 5.59114,-4.84896 0.49479,-0.44531 1.08854,-0.49479 0.64323,-0.0495 1.1875,0.39583 0.4948,0.39584 0.59375,1.03906 0.099,0.59375 -0.24739,1.13803 -1.48438,2.22656 -2.52344,5.04687 -1.03906,2.82031 0.54427,4.20573 2.96875,1.78125 9.99479,-0.19792 3.31511,-0.98958 5.9375,-2.47395 2.67188,-1.48438 3.85938,-2.96875 0.44531,-0.54428 1.08854,-0.59376 0.69271,-0.099 1.28646,0.29688 z m -41.21615,6.43229 v 0 q 5.44271,-2.32552 10.04427,-5.09635 -1.08854,-1.58334 -2.82031,-1.92969 -0.49479,-0.099 -1.03906,-0.099 -2.375,0 -4.89844,1.53386 -2.47396,1.53385 -3.80989,3.5625 -0.34636,0.44531 -0.64323,1.28645 -0.34636,0.84115 0.0495,1.53386 0,0 0.099,0.0495 0.099,0 0.29688,0 0.19792,0 0.54427,-0.0495 0.34635,-0.099 0.89062,-0.2474 0.54428,-0.19791 1.28646,-0.54427 z"
       style="font-style:normal;font-variant:normal;font-weight:normal;font-stretch:normal;font-size:101.33333588px;font-family:'Visual Hollow Script';-inkscape-font-specification:'Visual Hollow Script';fill:#11111f;fill-opacity:0.94117647;stroke-width:1.89999998"
       id="path923" />
    <path
       d="m 505.48994,190.81065 v 0 q 0.14844,0.69271 -0.24739,1.23698 -0.39584,0.54427 -1.08854,0.74219 -0.14844,0 -0.2474,0.0495 0.29688,0.44531 0.2474,0.98958 -0.0495,1.03907 -0.74219,1.78125 -0.64323,0.74219 -1.48438,1.08854 -0.64323,0.29688 -1.23698,0.29688 -0.9401,0 -1.63281,-0.59375 -0.54427,-0.49479 -0.54427,-1.23698 0.0495,-1.92969 1.48438,-3.5625 1.48437,-1.68229 3.5625,-2.1276 0.6927,-0.14844 1.23698,0.24739 0.54427,0.39584 0.6927,1.08854 z"
       style="font-style:normal;font-variant:normal;font-weight:normal;font-stretch:normal;font-size:101.33333588px;font-family:'Visual Hollow Script';-inkscape-font-specification:'Visual Hollow Script';fill:#11111f;fill-opacity:0.94117647;stroke-width:1.89999998"
       id="path925" />
  </g>
</svg>
