<svg xmlns="http://www.w3.org/2000/svg" width="600" height="230" viewBox="0 0 899.98131 345">
  <style/>
  <rect style="fill:#fbe39e;stroke:none" width="271.09656" height="17.46843" x="302.02155" y="239.22775" rx="6" ry="6"/>
  <g aria-label="My name is Lena. I'm a software engineer from Vienna, Austria." style="fill:#111;stroke:none" transform="translate(42.96505,-90)">
    <path d="m 193.45686,305.0448 q -1.496,-3.4 -3.026,-6.766 -1.53,-3.4 -2.992,-6.868 -0.476,-1.088 -0.952,-2.176 -0.442,-1.122 -0.884,-2.244 -0.408,-1.122 -0.85,-2.244 0,0.374 -0.034,0.748 0,0.374 0,0.748 -0.034,1.224 -0.102,2.958 -0.034,1.7 -0.102,3.672 -0.068,1.938 -0.102,3.91 -0.034,1.938 -0.068,3.672 -0.034,0.748 -0.068,1.496 0,0.748 -0.068,1.394 0.646,-0.034 1.258,-0.068 0.646,-0.034 1.292,-0.068 v 1.496 h -6.494 v -1.122 q 1.054,-0.034 1.53,-0.442 0.51,-0.442 0.646,-1.156 0.136,-0.714 0.17,-1.53 l 0.646,-15.504 q 0.034,-0.68 0.034,-1.36 0.034,-0.68 0.068,-1.326 -0.612,0.034 -1.224,0.068 -0.612,0 -1.224,0.034 v -1.462 h 5.202 l 5.848,13.498 q 0.442,1.02 0.85,2.04 0.442,1.02 0.884,2.04 0.476,1.02 0.918,2.074 h 0.068 q 0.374,-0.918 0.884,-2.176 0.51,-1.292 0.85,-2.21 1.496,-3.74 3.094,-7.48 1.632,-3.774 3.196,-7.786 h 5.032 v 1.122 q -0.85,-0.034 -1.394,0.34 -0.544,0.34 -0.782,1.156 -0.238,0.816 -0.17,2.21 l 0.884,15.47 q 0.068,0.578 0.068,1.122 0,0.544 0,0.986 0.612,-0.034 1.224,-0.034 0.646,-0.034 1.258,-0.068 v 1.496 h -7.616 v -1.122 q 1.054,-0.034 1.564,-0.51 0.51,-0.476 0.612,-1.36 0.136,-0.884 0.068,-2.176 l -0.68,-11.22 q -0.034,-0.544 -0.068,-1.088 -0.034,-0.544 -0.068,-1.088 -0.034,-0.544 -0.068,-1.088 -0.102,0.238 -0.238,0.51 -0.102,0.272 -0.204,0.578 l -7.65,18.904 z"/>
    <path d="m 212.66255,313.9188 q -1.054,0 -1.802,-0.51 -0.748,-0.51 -0.748,-1.564 0,-0.612 0.408,-1.122 0.408,-0.51 1.054,-0.51 0.816,-0.034 1.088,0.51 0.306,0.544 0.306,0.952 0,0.102 0,0.204 0,0.136 -0.034,0.272 0.102,0.068 0.374,0.068 0.408,0 0.884,-0.34 0.476,-0.34 0.85,-0.986 0.442,-0.748 1.02,-2.244 0.612,-1.496 1.36,-3.57 l -5.304,-11.356 q -0.884,-1.904 -1.292,-3.026 -0.374,-1.122 -0.51,-1.666 l -1.632,0.068 v -1.394 h 7.038 v 1.02 h -0.136 q -1.428,0.102 -1.564,1.088 -0.136,0.952 0.782,2.924 l 3.978,8.534 q 0.782,-2.176 1.496,-4.284 0.714,-2.142 1.428,-4.25 0.272,-0.748 0.544,-1.53 0.306,-0.816 0.578,-1.428 0.306,-0.646 0.544,-0.816 l -2.346,0.136 v -1.394 h 5.338 v 1.02 q -1.258,0.476 -1.904,1.598 -0.612,1.088 -1.258,2.822 l -4.25,11.866 q -1.02,2.856 -1.87,4.828 -0.85,2.006 -1.87,3.026 -1.02,1.054 -2.55,1.054 z"/>
    <path d="m 235.13908,304.7048 v -1.02 q 1.054,0 1.462,-0.51 0.408,-0.544 0.476,-1.462 0.068,-0.952 0.068,-2.176 l 0.034,-7.752 q 0,-0.544 0,-1.088 0.034,-0.544 0.136,-1.122 -0.612,0.034 -1.224,0.068 -0.578,0.034 -1.19,0.068 v -1.428 q 1.496,0 2.244,-0.136 0.782,-0.136 1.156,-0.34 0.374,-0.204 0.612,-0.442 h 0.986 q 0.034,0.238 0.034,0.544 0.034,0.306 0.068,0.68 0.034,0.374 0.034,0.85 0.748,-0.646 1.632,-1.156 0.918,-0.51 1.904,-0.816 1.02,-0.306 2.006,-0.306 2.958,0 4.318,1.87 1.36,1.836 1.36,5.746 v 6.324 q 0,0.68 -0.034,1.224 0,0.51 -0.102,1.088 0.544,-0.034 1.054,-0.034 0.544,-0.034 1.088,-0.068 v 1.394 h -6.936 v -1.02 q 1.054,0 1.462,-0.51 0.408,-0.544 0.476,-1.462 0.068,-0.952 0.068,-2.176 v -4.76 q -0.034,-2.924 -0.986,-4.42 -0.918,-1.496 -2.924,-1.462 -1.224,0.034 -2.414,0.646 -1.156,0.612 -1.938,1.564 0.034,0.272 0.034,0.612 0,0.34 0,0.714 l -0.034,8.67 q 0,0.68 -0.034,1.224 0,0.51 -0.102,1.088 0.544,-0.034 1.054,-0.034 0.544,-0.034 1.088,-0.068 v 1.394 z"/>
    <path d="m 265.22742,304.7048 q -0.102,-0.578 -0.136,-1.02 -0.034,-0.442 -0.102,-0.918 -1.156,1.156 -2.516,1.836 -1.326,0.646 -2.822,0.646 -2.584,0 -3.842,-1.156 -1.258,-1.19 -1.258,-2.89 0,-1.564 0.952,-2.686 0.986,-1.156 2.516,-1.87 1.564,-0.748 3.366,-1.088 1.836,-0.374 3.536,-0.34 v -2.108 q 0,-1.19 -0.204,-2.244 -0.204,-1.054 -0.884,-1.734 -0.68,-0.68 -2.176,-0.714 -0.986,-0.034 -2.04,0.374 -1.02,0.408 -1.496,1.394 0.272,0.272 0.34,0.646 0.102,0.34 0.102,0.646 0,0.408 -0.34,0.952 -0.34,0.51 -1.19,0.476 -0.714,0 -1.088,-0.476 -0.374,-0.51 -0.374,-1.19 0,-1.156 0.85,-2.074 0.884,-0.918 2.414,-1.462 1.53,-0.544 3.468,-0.544 2.856,0 4.216,1.53 1.36,1.496 1.326,4.76 0,1.258 0,2.55 0,1.258 -0.034,2.55 0,1.258 0,2.55 0,0.544 -0.034,1.088 -0.034,0.544 -0.102,1.224 0.612,-0.034 1.19,-0.068 0.612,-0.034 1.224,-0.068 v 1.428 z m -0.306,-8.33 q -1.156,0.034 -2.448,0.306 -1.258,0.238 -2.346,0.748 -1.054,0.51 -1.734,1.36 -0.646,0.816 -0.612,2.006 0.068,1.258 0.816,1.904 0.782,0.612 1.836,0.612 1.394,0 2.414,-0.51 1.054,-0.544 2.074,-1.496 -0.034,-0.374 -0.034,-0.816 0,-0.442 0,-0.918 0,-0.17 0,-1.088 0.034,-0.918 0.034,-2.108 z"/>
    <path d="m 271.52267,304.7048 v -1.02 q 1.054,0 1.462,-0.51 0.408,-0.544 0.476,-1.462 0.068,-0.952 0.068,-2.176 v -7.752 q 0,-0.544 0,-1.088 0.034,-0.544 0.136,-1.122 -0.612,0.034 -1.224,0.068 -0.578,0.034 -1.19,0.068 v -1.428 q 1.496,0 2.244,-0.136 0.782,-0.136 1.156,-0.34 0.374,-0.204 0.612,-0.442 h 0.986 q 0.068,0.34 0.068,0.782 0.034,0.442 0.068,1.02 1.02,-0.884 2.346,-1.428 1.326,-0.578 2.652,-0.578 1.7,0 2.856,0.612 1.156,0.612 1.802,1.666 1.156,-0.952 2.652,-1.598 1.53,-0.68 2.992,-0.68 2.958,0 4.352,1.802 1.394,1.768 1.326,5.814 l -0.034,6.324 q 0,0.68 -0.034,1.224 0,0.51 -0.102,1.088 0.544,-0.034 1.054,-0.034 0.544,-0.034 1.088,-0.068 v 1.394 h -6.936 v -1.02 q 1.054,0 1.462,-0.51 0.408,-0.544 0.476,-1.462 0.068,-0.952 0.068,-2.176 v -4.76 q 0,-2.924 -0.952,-4.386 -0.918,-1.462 -2.924,-1.428 -1.054,0 -2.108,0.476 -1.054,0.476 -1.836,1.19 0.17,0.544 0.238,1.19 0.102,0.612 0.102,1.292 -0.034,1.972 -0.034,3.978 0,2.006 -0.034,4.012 0,0.68 -0.034,1.224 0,0.51 -0.102,1.088 0.544,-0.034 1.054,-0.034 0.544,-0.034 1.088,-0.068 v 1.394 h -6.936 v -1.02 q 1.054,0 1.428,-0.51 0.408,-0.544 0.476,-1.462 0.102,-0.952 0.102,-2.176 l 0.034,-4.76 q 0.034,-2.924 -0.85,-4.42 -0.884,-1.496 -2.89,-1.462 -1.054,0 -2.074,0.476 -1.02,0.442 -1.734,1.156 0,0.408 0,0.884 0.034,0.442 0.034,0.952 v 8.738 q 0,0.68 -0.034,1.224 0,0.51 -0.102,1.088 0.544,-0.034 1.054,-0.034 0.544,-0.034 1.088,-0.068 v 1.394 z"/>
    <path d="m 309.26473,305.2488 q -2.346,0 -4.25,-1.088 -1.87,-1.122 -2.958,-3.128 -1.088,-2.04 -1.088,-4.794 0,-2.38 1.054,-4.454 1.088,-2.074 3.026,-3.332 1.938,-1.292 4.488,-1.292 1.428,0 2.652,0.476 1.258,0.442 2.21,1.394 0.952,0.918 1.496,2.346 0.544,1.394 0.544,3.298 l -11.968,0.204 q 0,2.584 0.544,4.556 0.578,1.938 1.836,3.026 1.258,1.054 3.23,1.054 1.054,0 2.142,-0.374 1.122,-0.374 2.074,-1.02 0.952,-0.646 1.53,-1.428 l 0.816,0.68 q -0.918,1.428 -2.21,2.278 -1.292,0.85 -2.652,1.224 -1.36,0.374 -2.516,0.374 z m -4.692,-11.798 h 8.67 q 0,-1.224 -0.374,-2.346 -0.34,-1.156 -1.156,-1.87 -0.816,-0.748 -2.142,-0.748 -1.972,0 -3.298,1.19 -1.292,1.156 -1.7,3.774 z"/>
    <path d="m 326.66252,303.6848 q 1.054,0 1.462,-0.51 0.408,-0.544 0.476,-1.462 0.068,-0.952 0.068,-2.176 v -7.752 q 0,-0.544 0.034,-1.02 0.034,-0.51 0.102,-1.19 -0.612,0.034 -1.224,0.068 -0.578,0.034 -1.19,0.068 v -1.428 q 1.496,0 2.312,-0.136 0.816,-0.136 1.224,-0.34 0.442,-0.204 0.68,-0.442 h 0.986 v 13.736 q 0,0.68 -0.034,1.224 0,0.51 -0.102,1.088 0.544,-0.034 1.054,-0.034 0.544,-0.034 1.088,-0.068 v 1.394 h -6.936 z m 3.298,-19.686 q -0.714,0 -1.258,-0.578 -0.544,-0.578 -0.544,-1.428 0,-0.85 0.544,-1.428 0.578,-0.612 1.292,-0.612 0.782,0 1.292,0.612 0.544,0.578 0.544,1.428 0,0.85 -0.578,1.428 -0.544,0.578 -1.292,0.578 z"/>
    <path d="m 342.29501,305.2488 q -1.7,0 -3.026,-0.476 -1.326,-0.442 -2.176,-1.02 l 0.136,1.19 h -1.428 l -0.204,-5.848 h 1.054 q 0.068,1.394 0.782,2.516 0.714,1.088 1.836,1.7 1.122,0.612 2.414,0.612 0.884,0 1.734,-0.272 0.85,-0.306 1.428,-0.884 0.578,-0.612 0.578,-1.53 0,-0.952 -0.578,-1.564 -0.544,-0.646 -1.462,-1.122 -0.918,-0.476 -1.972,-0.884 -1.02,-0.408 -2.04,-0.85 -1.02,-0.442 -1.904,-1.054 -0.85,-0.612 -1.36,-1.496 -0.51,-0.884 -0.51,-2.176 0,-0.714 0.272,-1.564 0.272,-0.85 0.918,-1.598 0.646,-0.782 1.768,-1.258 1.122,-0.51 2.856,-0.51 0.918,0 2.04,0.306 1.122,0.306 2.176,1.156 l -0.068,-1.292 h 1.428 v 5.95 h -1.088 q -0.068,-1.19 -0.544,-2.278 -0.476,-1.122 -1.394,-1.836 -0.918,-0.748 -2.38,-0.748 -1.564,0 -2.448,0.782 -0.884,0.782 -0.884,1.802 0,1.054 0.646,1.768 0.68,0.68 1.734,1.19 1.054,0.51 2.244,0.986 1.292,0.544 2.516,1.19 1.224,0.646 2.006,1.632 0.782,0.952 0.782,2.482 0,1.7 -0.884,2.822 -0.85,1.122 -2.21,1.632 -1.326,0.544 -2.788,0.544 z"/>
    <path d="m 366.86415,280.9048 -0.068,1.122 q -1.19,0.034 -1.7,0.578 -0.51,0.544 -0.646,1.462 -0.136,0.918 -0.204,2.142 l -0.782,14.586 q -0.034,0.918 -0.102,1.564 -0.068,0.646 -0.136,1.088 l 6.358,-0.102 q 2.142,-0.068 3.332,-1.36 1.19,-1.292 1.326,-4.318 h 1.156 l -0.578,7.038 h -16.728 l 0.068,-1.122 q 1.292,-0.068 1.768,-0.578 0.51,-0.544 0.612,-1.462 0.102,-0.952 0.17,-2.142 l 0.816,-14.688 q 0.068,-0.68 0.102,-1.292 0.034,-0.646 0.136,-1.156 -0.612,0.034 -1.224,0.068 -0.578,0.034 -1.19,0.068 v -1.496 z"/>
    <path d="m 385.00998,287.3308 q 1.224,0 2.312,0.374 1.088,0.374 1.768,1.224 0.68,0.85 0.68,2.312 0,1.394 -0.952,2.414 -0.952,1.02 -2.482,1.7 -1.53,0.646 -3.264,1.054 -1.734,0.408 -3.332,0.578 0,2.108 0.408,3.536 0.442,1.428 1.292,2.142 0.85,0.714 2.176,0.714 0.986,0 1.972,-0.442 1.02,-0.442 1.938,-1.326 0.918,-0.918 1.666,-2.346 l 1.122,0.646 q -0.952,1.768 -2.04,2.924 -1.088,1.156 -2.38,1.7 -1.292,0.544 -2.856,0.544 -3.23,0 -4.76,-2.006 -1.53,-2.04 -1.53,-5.338 0,-1.972 0.51,-3.842 0.51,-1.87 1.53,-3.332 1.02,-1.496 2.584,-2.346 1.564,-0.884 3.638,-0.884 z m -0.476,1.156 q -1.564,0 -2.584,1.054 -0.986,1.054 -1.53,2.72 -0.51,1.666 -0.646,3.502 1.802,-0.238 3.434,-0.85 1.632,-0.612 2.686,-1.564 1.054,-0.986 1.054,-2.278 0,-1.088 -0.612,-1.836 -0.578,-0.748 -1.802,-0.748 z"/>
    <path d="m 406.80711,305.0788 q -1.598,0 -2.176,-0.85 -0.578,-0.85 -0.578,-2.414 0,-0.952 0.136,-2.244 0.17,-1.292 0.374,-2.754 0.238,-1.462 0.374,-2.958 0.17,-1.496 0.17,-2.856 0,-0.408 -0.136,-0.884 -0.102,-0.476 -0.442,-0.816 -0.34,-0.374 -1.02,-0.374 -0.952,0 -1.904,0.884 -0.952,0.884 -1.802,2.38 -0.85,1.496 -1.53,3.332 -0.68,1.802 -1.088,3.74 -0.374,1.904 -0.374,3.638 0,0.51 0,0.952 0.034,0.408 0.068,0.85 h -2.856 q -0.034,-0.238 -0.034,-0.408 0,-0.204 0,-0.476 0,-0.578 0.068,-1.326 0.068,-0.782 0.204,-2.04 0.17,-1.292 0.408,-3.434 0.238,-2.006 0.34,-3.128 0.136,-1.122 0.204,-1.7 0.068,-0.612 0.068,-0.918 0.034,-0.34 0.034,-0.714 0,-0.612 -0.17,-1.054 -0.17,-0.476 -0.748,-0.476 -0.544,0 -1.258,0.748 -0.714,0.748 -1.224,2.55 l -0.952,-0.204 q 0.102,-0.612 0.408,-1.394 0.34,-0.816 0.884,-1.598 0.544,-0.782 1.326,-1.292 0.782,-0.51 1.802,-0.51 1.156,0 1.7,0.646 0.578,0.612 0.714,1.598 0.17,0.986 0.102,2.108 -0.068,0.952 -0.238,1.836 -0.136,0.884 -0.272,1.564 h 0.102 q 1.156,-3.094 2.278,-4.76 1.122,-1.7 2.21,-2.346 1.122,-0.646 2.21,-0.646 1.36,0 2.176,0.612 0.816,0.612 1.156,1.632 0.374,0.986 0.374,2.176 0,1.87 -0.272,3.842 -0.238,1.938 -0.51,3.604 -0.238,1.632 -0.238,2.618 0,0.612 0.136,1.088 0.17,0.476 0.782,0.476 0.578,0 1.258,-0.714 0.714,-0.748 1.224,-2.584 l 0.952,0.238 q -0.102,0.578 -0.442,1.394 -0.306,0.816 -0.85,1.598 -0.544,0.748 -1.326,1.258 -0.782,0.51 -1.802,0.51 z"/>
    <path d="m 421.92907,287.3308 q 1.02,0 2.244,0.17 1.224,0.136 2.312,0.408 -0.272,2.04 -0.544,4.08 -0.238,2.006 -0.476,3.842 -0.204,1.802 -0.34,3.264 -0.136,1.428 -0.136,2.244 0,0.68 0.102,1.36 0.102,0.68 0.85,0.68 0.578,0 1.258,-0.748 0.714,-0.748 1.224,-2.55 l 0.952,0.204 q -0.102,0.612 -0.442,1.428 -0.306,0.782 -0.85,1.564 -0.544,0.782 -1.326,1.292 -0.782,0.51 -1.802,0.51 -1.36,0 -1.938,-0.85 -0.578,-0.85 -0.578,-2.21 0,-0.986 0.17,-2.142 0.204,-1.156 0.442,-2.414 h -0.102 q -0.816,2.516 -1.7,4.046 -0.85,1.496 -1.734,2.278 -0.85,0.782 -1.666,1.02 -0.816,0.272 -1.53,0.272 -1.836,0 -3.094,-1.36 -1.224,-1.36 -1.224,-4.556 0,-2.38 0.612,-4.522 0.612,-2.142 1.836,-3.774 1.258,-1.666 3.128,-2.584 1.87,-0.952 4.352,-0.952 z m -1.054,1.224 q -1.53,0 -2.686,0.85 -1.122,0.85 -1.87,2.312 -0.748,1.428 -1.122,3.23 -0.34,1.768 -0.34,3.638 0,2.176 0.476,3.604 0.476,1.394 1.734,1.394 0.918,0 1.836,-0.918 0.952,-0.918 1.768,-2.448 0.816,-1.564 1.462,-3.468 0.646,-1.938 1.02,-3.944 0.374,-2.006 0.374,-3.842 -0.51,-0.204 -1.19,-0.306 -0.68,-0.102 -1.462,-0.102 z"/>
    <path d="m 432.07323,300.9648 q 0.816,0 1.326,0.646 0.51,0.612 0.442,1.496 -0.034,0.918 -0.646,1.53 -0.612,0.612 -1.394,0.612 -0.782,0 -1.326,-0.612 -0.544,-0.612 -0.51,-1.53 0.068,-0.884 0.68,-1.496 0.646,-0.646 1.428,-0.646 z"/>
    <path d="m 188.28886,324.0268 q -1.258,0.034 -1.768,0.578 -0.476,0.544 -0.544,1.462 -0.034,0.918 -0.034,2.142 v 14.45 q 0,0.918 -0.034,1.598 0,0.646 -0.068,1.088 0.612,-0.034 1.224,-0.068 0.612,-0.034 1.224,-0.068 v 1.496 h -7.65 v -1.122 q 1.292,-0.068 1.768,-0.578 0.476,-0.544 0.51,-1.462 0.068,-0.952 0.068,-2.142 v -14.688 q 0,-0.68 0.034,-1.292 0.034,-0.646 0.068,-1.156 -0.612,0.034 -1.224,0.068 -0.612,0.034 -1.224,0.068 v -1.496 h 7.65 z"/>
    <path d="m 191.70474,330.0108 -0.306,-7.65 h 2.856 l -0.306,7.65 z"/>
    <path d="m 196.9922,346.7048 v -1.02 q 1.054,0 1.462,-0.51 0.408,-0.544 0.476,-1.462 0.068,-0.952 0.068,-2.176 v -7.752 q 0,-0.544 0,-1.088 0.034,-0.544 0.136,-1.122 -0.612,0.034 -1.224,0.068 -0.578,0.034 -1.19,0.068 v -1.428 q 1.496,0 2.244,-0.136 0.782,-0.136 1.156,-0.34 0.374,-0.204 0.612,-0.442 h 0.986 q 0.068,0.34 0.068,0.782 0.034,0.442 0.068,1.02 1.02,-0.884 2.346,-1.428 1.326,-0.578 2.652,-0.578 1.7,0 2.856,0.612 1.156,0.612 1.802,1.666 1.156,-0.952 2.652,-1.598 1.53,-0.68 2.992,-0.68 2.958,0 4.352,1.802 1.394,1.768 1.326,5.814 l -0.034,6.324 q 0,0.68 -0.034,1.224 0,0.51 -0.102,1.088 0.544,-0.034 1.054,-0.034 0.544,-0.034 1.088,-0.068 v 1.394 h -6.936 v -1.02 q 1.054,0 1.462,-0.51 0.408,-0.544 0.476,-1.462 0.068,-0.952 0.068,-2.176 v -4.76 q 0,-2.924 -0.952,-4.386 -0.918,-1.462 -2.924,-1.428 -1.054,0 -2.108,0.476 -1.054,0.476 -1.836,1.19 0.17,0.544 0.238,1.19 0.102,0.612 0.102,1.292 -0.034,1.972 -0.034,3.978 0,2.006 -0.034,4.012 0,0.68 -0.034,1.224 0,0.51 -0.102,1.088 0.544,-0.034 1.054,-0.034 0.544,-0.034 1.088,-0.068 v 1.394 h -6.936 v -1.02 q 1.054,0 1.428,-0.51 0.408,-0.544 0.476,-1.462 0.102,-0.952 0.102,-2.176 l 0.034,-4.76 q 0.034,-2.924 -0.85,-4.42 -0.884,-1.496 -2.89,-1.462 -1.054,0 -2.074,0.476 -1.02,0.442 -1.734,1.156 0,0.408 0,0.884 0.034,0.442 0.034,0.952 v 8.738 q 0,0.68 -0.034,1.224 0,0.51 -0.102,1.088 0.544,-0.034 1.054,-0.034 0.544,-0.034 1.088,-0.068 v 1.394 z"/>
    <path d="m 244.90711,346.7048 q -0.102,-0.578 -0.136,-1.02 -0.034,-0.442 -0.102,-0.918 -1.156,1.156 -2.516,1.836 -1.326,0.646 -2.822,0.646 -2.584,0 -3.842,-1.156 -1.258,-1.19 -1.258,-2.89 0,-1.564 0.952,-2.686 0.986,-1.156 2.516,-1.87 1.564,-0.748 3.366,-1.088 1.836,-0.374 3.536,-0.34 v -2.108 q 0,-1.19 -0.204,-2.244 -0.204,-1.054 -0.884,-1.734 -0.68,-0.68 -2.176,-0.714 -0.986,-0.034 -2.04,0.374 -1.02,0.408 -1.496,1.394 0.272,0.272 0.34,0.646 0.102,0.34 0.102,0.646 0,0.408 -0.34,0.952 -0.34,0.51 -1.19,0.476 -0.714,0 -1.088,-0.476 -0.374,-0.51 -0.374,-1.19 0,-1.156 0.85,-2.074 0.884,-0.918 2.414,-1.462 1.53,-0.544 3.468,-0.544 2.856,0 4.216,1.53 1.36,1.496 1.326,4.76 0,1.258 0,2.55 0,1.258 -0.034,2.55 0,1.258 0,2.55 0,0.544 -0.034,1.088 -0.034,0.544 -0.102,1.224 0.612,-0.034 1.19,-0.068 0.612,-0.034 1.224,-0.068 v 1.428 z m -0.306,-8.33 q -1.156,0.034 -2.448,0.306 -1.258,0.238 -2.346,0.748 -1.054,0.51 -1.734,1.36 -0.646,0.816 -0.612,2.006 0.068,1.258 0.816,1.904 0.782,0.612 1.836,0.612 1.394,0 2.414,-0.51 1.054,-0.544 2.074,-1.496 -0.034,-0.374 -0.034,-0.816 0,-0.442 0,-0.918 0,-0.17 0,-1.088 0.034,-0.918 0.034,-2.108 z"/>
    <path d="m 266.2372,347.2488 q -1.7,0 -3.026,-0.476 -1.326,-0.442 -2.176,-1.02 l 0.136,1.19 h -1.428 l -0.204,-5.848 h 1.054 q 0.068,1.394 0.782,2.516 0.714,1.088 1.836,1.7 1.122,0.612 2.414,0.612 0.884,0 1.734,-0.272 0.85,-0.306 1.428,-0.884 0.578,-0.612 0.578,-1.53 0,-0.952 -0.578,-1.564 -0.544,-0.646 -1.462,-1.122 -0.918,-0.476 -1.972,-0.884 -1.02,-0.408 -2.04,-0.85 -1.02,-0.442 -1.904,-1.054 -0.85,-0.612 -1.36,-1.496 -0.51,-0.884 -0.51,-2.176 0,-0.714 0.272,-1.564 0.272,-0.85 0.918,-1.598 0.646,-0.782 1.768,-1.258 1.122,-0.51 2.856,-0.51 0.918,0 2.04,0.306 1.122,0.306 2.176,1.156 l -0.068,-1.292 h 1.428 v 5.95 h -1.088 q -0.068,-1.19 -0.544,-2.278 -0.476,-1.122 -1.394,-1.836 -0.918,-0.748 -2.38,-0.748 -1.564,0 -2.448,0.782 -0.884,0.782 -0.884,1.802 0,1.054 0.646,1.768 0.68,0.68 1.734,1.19 1.054,0.51 2.244,0.986 1.292,0.544 2.516,1.19 1.224,0.646 2.006,1.632 0.782,0.952 0.782,2.482 0,1.7 -0.884,2.822 -0.85,1.122 -2.21,1.632 -1.326,0.544 -2.788,0.544 z"/>
    <path d="m 282.53748,347.2488 q -2.38,0 -4.318,-1.088 -1.938,-1.122 -3.094,-3.06 -1.122,-1.972 -1.122,-4.488 0,-2.686 1.122,-4.828 1.122,-2.142 3.06,-3.366 1.938,-1.258 4.352,-1.258 2.38,0 4.318,1.156 1.938,1.122 3.094,3.06 1.156,1.938 1.156,4.42 0,2.618 -1.156,4.794 -1.122,2.142 -3.06,3.4 -1.938,1.258 -4.352,1.258 z m 0.272,-1.36 q 1.802,0 2.856,-1.02 1.054,-1.02 1.496,-2.652 0.476,-1.632 0.476,-3.434 0,-1.53 -0.306,-2.992 -0.272,-1.496 -0.884,-2.686 -0.612,-1.224 -1.598,-1.938 -0.952,-0.714 -2.312,-0.714 -1.768,0 -2.89,1.02 -1.122,1.02 -1.666,2.652 -0.51,1.632 -0.51,3.502 0,2.108 0.578,4.012 0.578,1.87 1.768,3.06 1.19,1.19 2.992,1.19 z"/>
    <path d="m 295.07014,328.9908 q 0,-3.774 1.36,-5.95 1.394,-2.176 4.76,-2.176 0.748,0 1.564,0.272 0.85,0.238 1.462,0.816 0.612,0.544 0.612,1.428 0,0.646 -0.374,1.088 -0.34,0.442 -1.02,0.442 -0.816,0.034 -1.156,-0.476 -0.306,-0.544 -0.306,-0.918 0,-0.204 0.034,-0.408 0.034,-0.204 0.136,-0.442 -0.238,-0.306 -0.68,-0.442 -0.408,-0.136 -0.782,-0.136 -1.054,0 -1.632,0.612 -0.578,0.612 -0.816,1.53 -0.238,0.918 -0.238,1.904 v 3.57 h 4.59 v 1.326 l -4.59,0.102 0.034,11.968 q 0,0.68 -0.034,1.224 0,0.51 -0.102,1.088 0.544,-0.034 1.054,-0.034 0.544,-0.034 1.088,-0.068 v 1.394 h -6.936 v -1.02 q 1.054,0 1.462,-0.51 0.408,-0.544 0.476,-1.462 0.068,-0.952 0.068,-2.176 l -0.034,-10.37 -2.788,0.068 v -1.53 h 2.788 z"/>
    <path d="m 310.30686,347.2488 q -0.782,0 -1.598,-0.238 -0.816,-0.204 -1.53,-0.85 -0.68,-0.646 -1.088,-1.87 -0.408,-1.258 -0.408,-3.298 l 0.068,-9.86 -2.618,0.034 v -1.462 q 0.884,-0.034 1.802,-0.646 0.918,-0.646 1.632,-1.734 0.748,-1.088 1.02,-2.38 h 1.156 v 4.76 h 5.712 v 1.326 l -5.712,0.068 -0.068,9.452 q 0,1.53 0.238,2.618 0.272,1.054 0.85,1.598 0.578,0.544 1.496,0.544 0.952,0 1.768,-0.544 0.85,-0.544 1.496,-1.496 l 0.918,0.748 q -0.748,1.122 -1.496,1.768 -0.714,0.646 -1.394,0.952 -0.68,0.34 -1.258,0.408 -0.578,0.102 -0.986,0.102 z"/>
    <path d="m 322.60895,346.8068 -4.454,-13.056 q -0.238,-0.714 -0.442,-1.224 -0.17,-0.51 -0.272,-0.884 -0.102,-0.374 -0.17,-0.646 l -1.802,0.102 v -1.394 h 7.208 v 1.02 q -1.53,0.034 -1.7,1.054 -0.136,0.986 0.408,2.618 l 1.564,4.76 q 0.272,0.816 0.544,1.666 0.272,0.816 0.544,1.632 0.306,-0.918 0.612,-1.836 0.34,-0.952 0.646,-1.904 l 3.026,-9.01 h 1.394 l 3.434,9.894 q 0.272,0.748 0.544,1.53 0.272,0.782 0.544,1.564 0.272,-0.748 0.51,-1.462 0.272,-0.748 0.51,-1.496 l 2.244,-6.46 q 0.238,-0.68 0.476,-1.292 0.238,-0.612 0.544,-0.986 l -1.972,0.102 v -1.394 h 5.916 v 1.02 q -0.884,0.034 -1.462,0.238 -0.544,0.204 -0.918,0.544 -0.374,0.34 -0.612,0.816 -0.238,0.476 -0.442,1.088 l -4.896,13.396 h -1.36 l -3.23,-9.282 q -0.204,-0.612 -0.408,-1.19 -0.204,-0.612 -0.408,-1.19 -0.204,-0.612 -0.408,-1.19 -0.204,0.578 -0.408,1.19 -0.204,0.578 -0.408,1.19 -0.204,0.578 -0.408,1.19 l -3.196,9.282 z"/>
    <path d="m 353.09149,346.7048 q -0.102,-0.578 -0.136,-1.02 -0.034,-0.442 -0.102,-0.918 -1.156,1.156 -2.516,1.836 -1.326,0.646 -2.822,0.646 -2.584,0 -3.842,-1.156 -1.258,-1.19 -1.258,-2.89 0,-1.564 0.952,-2.686 0.986,-1.156 2.516,-1.87 1.564,-0.748 3.366,-1.088 1.836,-0.374 3.536,-0.34 v -2.108 q 0,-1.19 -0.204,-2.244 -0.204,-1.054 -0.884,-1.734 -0.68,-0.68 -2.176,-0.714 -0.986,-0.034 -2.04,0.374 -1.02,0.408 -1.496,1.394 0.272,0.272 0.34,0.646 0.102,0.34 0.102,0.646 0,0.408 -0.34,0.952 -0.34,0.51 -1.19,0.476 -0.714,0 -1.088,-0.476 -0.374,-0.51 -0.374,-1.19 0,-1.156 0.85,-2.074 0.884,-0.918 2.414,-1.462 1.53,-0.544 3.468,-0.544 2.856,0 4.216,1.53 1.36,1.496 1.326,4.76 0,1.258 0,2.55 0,1.258 -0.034,2.55 0,1.258 0,2.55 0,0.544 -0.034,1.088 -0.034,0.544 -0.102,1.224 0.612,-0.034 1.19,-0.068 0.612,-0.034 1.224,-0.068 v 1.428 z m -0.306,-8.33 q -1.156,0.034 -2.448,0.306 -1.258,0.238 -2.346,0.748 -1.054,0.51 -1.734,1.36 -0.646,0.816 -0.612,2.006 0.068,1.258 0.816,1.904 0.782,0.612 1.836,0.612 1.394,0 2.414,-0.51 1.054,-0.544 2.074,-1.496 -0.034,-0.374 -0.034,-0.816 0,-0.442 0,-0.918 0,-0.17 0,-1.088 0.034,-0.918 0.034,-2.108 z"/>
    <path d="m 359.38673,345.6848 q 1.054,0 1.462,-0.51 0.408,-0.544 0.476,-1.462 0.068,-0.952 0.068,-2.176 v -7.752 q 0,-0.544 0,-1.088 0.034,-0.544 0.136,-1.122 -0.612,0.034 -1.224,0.068 -0.578,0 -1.19,0.034 v -1.394 h 1.054 q 1.462,0 2.006,-0.272 0.578,-0.306 0.952,-0.646 h 0.986 q 0.068,0.544 0.102,1.36 0.034,0.782 0.068,2.006 0.51,-0.85 1.394,-1.666 0.884,-0.816 1.972,-1.36 1.122,-0.544 2.346,-0.544 0.952,0 1.666,0.51 0.714,0.51 0.714,1.632 0,0.272 -0.17,0.68 -0.17,0.374 -0.544,0.68 -0.374,0.272 -0.986,0.272 -0.748,-0.034 -1.19,-0.578 -0.442,-0.578 -0.34,-1.326 -0.85,-0.034 -1.768,0.442 -0.884,0.476 -1.666,1.326 -0.782,0.816 -1.394,1.938 l 0.034,8.364 q 0,0.68 -0.034,1.224 0,0.51 -0.102,1.088 0.544,-0.034 1.054,-0.034 0.544,-0.034 1.088,-0.068 v 1.394 h -6.97 z"/>
    <path d="m 381.1913,347.2488 q -2.346,0 -4.25,-1.088 -1.87,-1.122 -2.958,-3.128 -1.088,-2.04 -1.088,-4.794 0,-2.38 1.054,-4.454 1.088,-2.074 3.026,-3.332 1.938,-1.292 4.488,-1.292 1.428,0 2.652,0.476 1.258,0.442 2.21,1.394 0.952,0.918 1.496,2.346 0.544,1.394 0.544,3.298 l -11.968,0.204 q 0,2.584 0.544,4.556 0.578,1.938 1.836,3.026 1.258,1.054 3.23,1.054 1.054,0 2.142,-0.374 1.122,-0.374 2.074,-1.02 0.952,-0.646 1.53,-1.428 l 0.816,0.68 q -0.918,1.428 -2.21,2.278 -1.292,0.85 -2.652,1.224 -1.36,0.374 -2.516,0.374 z m -4.692,-11.798 h 8.67 q 0,-1.224 -0.374,-2.346 -0.34,-1.156 -1.156,-1.87 -0.816,-0.748 -2.142,-0.748 -1.972,0 -3.298,1.19 -1.292,1.156 -1.7,3.774 z"/>
    <path d="m 406.81708,347.2488 q -2.346,0 -4.25,-1.088 -1.87,-1.122 -2.958,-3.128 -1.088,-2.04 -1.088,-4.794 0,-2.38 1.054,-4.454 1.088,-2.074 3.026,-3.332 1.938,-1.292 4.488,-1.292 1.428,0 2.652,0.476 1.258,0.442 2.21,1.394 0.952,0.918 1.496,2.346 0.544,1.394 0.544,3.298 l -11.968,0.204 q 0,2.584 0.544,4.556 0.578,1.938 1.836,3.026 1.258,1.054 3.23,1.054 1.054,0 2.142,-0.374 1.122,-0.374 2.074,-1.02 0.952,-0.646 1.53,-1.428 l 0.816,0.68 q -0.918,1.428 -2.21,2.278 -1.292,0.85 -2.652,1.224 -1.36,0.374 -2.516,0.374 z m -4.692,-11.798 h 8.67 q 0,-1.224 -0.374,-2.346 -0.34,-1.156 -1.156,-1.87 -0.816,-0.748 -2.142,-0.748 -1.972,0 -3.298,1.19 -1.292,1.156 -1.7,3.774 z"/>
    <path d="m 416.15002,346.7048 v -1.02 q 1.054,0 1.462,-0.51 0.408,-0.544 0.476,-1.462 0.068,-0.952 0.068,-2.176 l 0.034,-7.752 q 0,-0.544 0,-1.088 0.034,-0.544 0.136,-1.122 -0.612,0.034 -1.224,0.068 -0.578,0.034 -1.19,0.068 v -1.428 q 1.496,0 2.244,-0.136 0.782,-0.136 1.156,-0.34 0.374,-0.204 0.612,-0.442 h 0.986 q 0.034,0.238 0.034,0.544 0.034,0.306 0.068,0.68 0.034,0.374 0.034,0.85 0.748,-0.646 1.632,-1.156 0.918,-0.51 1.904,-0.816 1.02,-0.306 2.006,-0.306 2.958,0 4.318,1.87 1.36,1.836 1.36,5.746 v 6.324 q 0,0.68 -0.034,1.224 0,0.51 -0.102,1.088 0.544,-0.034 1.054,-0.034 0.544,-0.034 1.088,-0.068 v 1.394 h -6.936 v -1.02 q 1.054,0 1.462,-0.51 0.408,-0.544 0.476,-1.462 0.068,-0.952 0.068,-2.176 v -4.76 q -0.034,-2.924 -0.986,-4.42 -0.918,-1.496 -2.924,-1.462 -1.224,0.034 -2.414,0.646 -1.156,0.612 -1.938,1.564 0.034,0.272 0.034,0.612 0,0.34 0,0.714 l -0.034,8.67 q 0,0.68 -0.034,1.224 0,0.51 -0.102,1.088 0.544,-0.034 1.054,-0.034 0.544,-0.034 1.088,-0.068 v 1.394 z"/>
    <path d="m 444.09636,355.9188 q -3.06,0 -4.93,-0.68 -1.87,-0.68 -2.72,-1.734 -0.85,-1.054 -0.85,-2.176 0,-1.054 0.476,-1.87 0.51,-0.782 1.224,-1.36 0.748,-0.578 1.428,-0.85 -1.088,-0.374 -1.734,-0.986 -0.612,-0.646 -0.612,-1.7 0,-1.19 0.952,-2.21 0.952,-1.054 2.448,-1.292 -1.564,-0.748 -2.516,-2.074 -0.918,-1.326 -0.918,-3.094 0,-2.04 1.054,-3.536 1.054,-1.53 2.686,-2.346 1.666,-0.85 3.434,-0.85 1.122,0 2.244,0.34 1.122,0.306 2.074,0.918 0.34,-0.952 0.952,-1.7 0.646,-0.748 1.462,-1.156 0.816,-0.442 1.7,-0.442 0.884,0 1.326,0.476 0.476,0.442 0.476,1.224 0,0.238 -0.136,0.578 -0.136,0.34 -0.476,0.578 -0.306,0.238 -0.85,0.238 -0.578,0 -0.952,-0.34 -0.374,-0.34 -0.476,-0.85 -0.85,0.136 -1.326,0.816 -0.476,0.646 -0.646,1.428 0.816,0.748 1.292,1.802 0.51,1.054 0.51,2.244 0,1.904 -1.02,3.4 -0.986,1.496 -2.618,2.346 -1.632,0.816 -3.536,0.816 -0.646,0 -1.122,-0.068 -0.476,-0.102 -1.156,-0.102 -1.258,0 -2.04,0.612 -0.782,0.612 -0.544,1.462 0.272,0.816 1.666,1.054 1.394,0.204 3.74,0.306 2.618,0.102 4.488,0.612 1.87,0.51 2.856,1.564 1.02,1.088 1.02,2.924 0,1.36 -0.748,2.414 -0.714,1.088 -1.938,1.802 -1.19,0.714 -2.686,1.088 -1.462,0.374 -2.958,0.374 z m -0.034,-1.326 q 2.924,0 4.556,-1.088 1.632,-1.088 1.632,-2.55 0,-1.258 -0.85,-1.938 -0.85,-0.646 -2.312,-0.918 -1.462,-0.238 -3.366,-0.272 -0.918,-0.034 -1.802,-0.102 -0.884,-0.034 -1.7,-0.17 -0.918,0.612 -1.428,1.496 -0.51,0.884 -0.51,1.87 0,1.666 1.564,2.652 1.598,1.02 4.216,1.02 z m -0.442,-13.94 q 1.258,0 2.074,-0.612 0.85,-0.612 1.258,-1.666 0.442,-1.054 0.442,-2.38 0,-1.496 -0.442,-2.788 -0.442,-1.292 -1.326,-2.074 -0.85,-0.782 -2.176,-0.782 -1.836,0 -2.856,1.394 -0.986,1.36 -0.986,3.4 0,1.632 0.476,2.89 0.476,1.224 1.36,1.938 0.918,0.68 2.176,0.68 z"/>
    <path d="m 454.59219,345.6848 q 1.054,0 1.462,-0.51 0.408,-0.544 0.476,-1.462 0.068,-0.952 0.068,-2.176 v -7.752 q 0,-0.544 0.034,-1.02 0.034,-0.51 0.102,-1.19 -0.612,0.034 -1.224,0.068 -0.578,0.034 -1.19,0.068 v -1.428 q 1.496,0 2.312,-0.136 0.816,-0.136 1.224,-0.34 0.442,-0.204 0.68,-0.442 h 0.986 v 13.736 q 0,0.68 -0.034,1.224 0,0.51 -0.102,1.088 0.544,-0.034 1.054,-0.034 0.544,-0.034 1.088,-0.068 v 1.394 h -6.936 z m 3.298,-19.686 q -0.714,0 -1.258,-0.578 -0.544,-0.578 -0.544,-1.428 0,-0.85 0.544,-1.428 0.578,-0.612 1.292,-0.612 0.782,0 1.292,0.612 0.544,0.578 0.544,1.428 0,0.85 -0.578,1.428 -0.544,0.578 -1.292,0.578 z"/>
    <path d="m 463.2547,346.7048 v -1.02 q 1.054,0 1.462,-0.51 0.408,-0.544 0.476,-1.462 0.068,-0.952 0.068,-2.176 l 0.034,-7.752 q 0,-0.544 0,-1.088 0.034,-0.544 0.136,-1.122 -0.612,0.034 -1.224,0.068 -0.578,0.034 -1.19,0.068 v -1.428 q 1.496,0 2.244,-0.136 0.782,-0.136 1.156,-0.34 0.374,-0.204 0.612,-0.442 h 0.986 q 0.034,0.238 0.034,0.544 0.034,0.306 0.068,0.68 0.034,0.374 0.034,0.85 0.748,-0.646 1.632,-1.156 0.918,-0.51 1.904,-0.816 1.02,-0.306 2.006,-0.306 2.958,0 4.318,1.87 1.36,1.836 1.36,5.746 v 6.324 q 0,0.68 -0.034,1.224 0,0.51 -0.102,1.088 0.544,-0.034 1.054,-0.034 0.544,-0.034 1.088,-0.068 v 1.394 h -6.936 v -1.02 q 1.054,0 1.462,-0.51 0.408,-0.544 0.476,-1.462 0.068,-0.952 0.068,-2.176 v -4.76 q -0.034,-2.924 -0.986,-4.42 -0.918,-1.496 -2.924,-1.462 -1.224,0.034 -2.414,0.646 -1.156,0.612 -1.938,1.564 0.034,0.272 0.034,0.612 0,0.34 0,0.714 l -0.034,8.67 q 0,0.68 -0.034,1.224 0,0.51 -0.102,1.088 0.544,-0.034 1.054,-0.034 0.544,-0.034 1.088,-0.068 v 1.394 z"/>
    <path d="m 491.23505,347.2488 q -2.346,0 -4.25,-1.088 -1.87,-1.122 -2.958,-3.128 -1.088,-2.04 -1.088,-4.794 0,-2.38 1.054,-4.454 1.088,-2.074 3.026,-3.332 1.938,-1.292 4.488,-1.292 1.428,0 2.652,0.476 1.258,0.442 2.21,1.394 0.952,0.918 1.496,2.346 0.544,1.394 0.544,3.298 l -11.968,0.204 q 0,2.584 0.544,4.556 0.578,1.938 1.836,3.026 1.258,1.054 3.23,1.054 1.054,0 2.142,-0.374 1.122,-0.374 2.074,-1.02 0.952,-0.646 1.53,-1.428 l 0.816,0.68 q -0.918,1.428 -2.21,2.278 -1.292,0.85 -2.652,1.224 -1.36,0.374 -2.516,0.374 z m -4.692,-11.798 h 8.67 q 0,-1.224 -0.374,-2.346 -0.34,-1.156 -1.156,-1.87 -0.816,-0.748 -2.142,-0.748 -1.972,0 -3.298,1.19 -1.292,1.156 -1.7,3.774 z"/>
    <path d="m 508.59677,347.2488 q -2.346,0 -4.25,-1.088 -1.87,-1.122 -2.958,-3.128 -1.088,-2.04 -1.088,-4.794 0,-2.38 1.054,-4.454 1.088,-2.074 3.026,-3.332 1.938,-1.292 4.488,-1.292 1.428,0 2.652,0.476 1.258,0.442 2.21,1.394 0.952,0.918 1.496,2.346 0.544,1.394 0.544,3.298 l -11.968,0.204 q 0,2.584 0.544,4.556 0.578,1.938 1.836,3.026 1.258,1.054 3.23,1.054 1.054,0 2.142,-0.374 1.122,-0.374 2.074,-1.02 0.952,-0.646 1.53,-1.428 l 0.816,0.68 q -0.918,1.428 -2.21,2.278 -1.292,0.85 -2.652,1.224 -1.36,0.374 -2.516,0.374 z m -4.692,-11.798 h 8.67 q 0,-1.224 -0.374,-2.346 -0.34,-1.156 -1.156,-1.87 -0.816,-0.748 -2.142,-0.748 -1.972,0 -3.298,1.19 -1.292,1.156 -1.7,3.774 z"/>
    <path d="m 517.92972,345.6848 q 1.054,0 1.462,-0.51 0.408,-0.544 0.476,-1.462 0.068,-0.952 0.068,-2.176 v -7.752 q 0,-0.544 0,-1.088 0.034,-0.544 0.136,-1.122 -0.612,0.034 -1.224,0.068 -0.578,0 -1.19,0.034 v -1.394 h 1.054 q 1.462,0 2.006,-0.272 0.578,-0.306 0.952,-0.646 h 0.986 q 0.068,0.544 0.102,1.36 0.034,0.782 0.068,2.006 0.51,-0.85 1.394,-1.666 0.884,-0.816 1.972,-1.36 1.122,-0.544 2.346,-0.544 0.952,0 1.666,0.51 0.714,0.51 0.714,1.632 0,0.272 -0.17,0.68 -0.17,0.374 -0.544,0.68 -0.374,0.272 -0.986,0.272 -0.748,-0.034 -1.19,-0.578 -0.442,-0.578 -0.34,-1.326 -0.85,-0.034 -1.768,0.442 -0.884,0.476 -1.666,1.326 -0.782,0.816 -1.394,1.938 l 0.034,8.364 q 0,0.68 -0.034,1.224 0,0.51 -0.102,1.088 0.544,-0.034 1.054,-0.034 0.544,-0.034 1.088,-0.068 v 1.394 h -6.97 z"/>
    <path d="m 182.40686,370.9908 q 0,-3.774 1.36,-5.95 1.394,-2.176 4.76,-2.176 0.748,0 1.564,0.272 0.85,0.238 1.462,0.816 0.612,0.544 0.612,1.428 0,0.646 -0.374,1.088 -0.34,0.442 -1.02,0.442 -0.816,0.034 -1.156,-0.476 -0.306,-0.544 -0.306,-0.918 0,-0.204 0.034,-0.408 0.034,-0.204 0.136,-0.442 -0.238,-0.306 -0.68,-0.442 -0.408,-0.136 -0.782,-0.136 -1.054,0 -1.632,0.612 -0.578,0.612 -0.816,1.53 -0.238,0.918 -0.238,1.904 v 3.57 h 4.59 v 1.326 l -4.59,0.102 0.034,11.968 q 0,0.68 -0.034,1.224 0,0.51 -0.102,1.088 0.544,-0.034 1.054,-0.034 0.544,-0.034 1.088,-0.068 v 1.394 h -6.936 v -1.02 q 1.054,0 1.462,-0.51 0.408,-0.544 0.476,-1.462 0.068,-0.952 0.068,-2.176 l -0.034,-10.37 -2.788,0.068 v -1.53 h 2.788 z"/>
    <path d="m 190.85314,387.6848 q 1.054,0 1.462,-0.51 0.408,-0.544 0.476,-1.462 0.068,-0.952 0.068,-2.176 v -7.752 q 0,-0.544 0,-1.088 0.034,-0.544 0.136,-1.122 -0.612,0.034 -1.224,0.068 -0.578,0 -1.19,0.034 v -1.394 h 1.054 q 1.462,0 2.006,-0.272 0.578,-0.306 0.952,-0.646 h 0.986 q 0.068,0.544 0.102,1.36 0.034,0.782 0.068,2.006 0.51,-0.85 1.394,-1.666 0.884,-0.816 1.972,-1.36 1.122,-0.544 2.346,-0.544 0.952,0 1.666,0.51 0.714,0.51 0.714,1.632 0,0.272 -0.17,0.68 -0.17,0.374 -0.544,0.68 -0.374,0.272 -0.986,0.272 -0.748,-0.034 -1.19,-0.578 -0.442,-0.578 -0.34,-1.326 -0.85,-0.034 -1.768,0.442 -0.884,0.476 -1.666,1.326 -0.782,0.816 -1.394,1.938 l 0.034,8.364 q 0,0.68 -0.034,1.224 0,0.51 -0.102,1.088 0.544,-0.034 1.054,-0.034 0.544,-0.034 1.088,-0.068 v 1.394 h -6.97 z"/>
    <path d="m 212.8617,389.2488 q -2.38,0 -4.318,-1.088 -1.938,-1.122 -3.094,-3.06 -1.122,-1.972 -1.122,-4.488 0,-2.686 1.122,-4.828 1.122,-2.142 3.06,-3.366 1.938,-1.258 4.352,-1.258 2.38,0 4.318,1.156 1.938,1.122 3.094,3.06 1.156,1.938 1.156,4.42 0,2.618 -1.156,4.794 -1.122,2.142 -3.06,3.4 -1.938,1.258 -4.352,1.258 z m 0.272,-1.36 q 1.802,0 2.856,-1.02 1.054,-1.02 1.496,-2.652 0.476,-1.632 0.476,-3.434 0,-1.53 -0.306,-2.992 -0.272,-1.496 -0.884,-2.686 -0.612,-1.224 -1.598,-1.938 -0.952,-0.714 -2.312,-0.714 -1.768,0 -2.89,1.02 -1.122,1.02 -1.666,2.652 -0.51,1.632 -0.51,3.502 0,2.108 0.578,4.012 0.578,1.87 1.768,3.06 1.19,1.19 2.992,1.19 z"/>
    <path d="m 223.45158,388.7048 v -1.02 q 1.054,0 1.462,-0.51 0.408,-0.544 0.476,-1.462 0.068,-0.952 0.068,-2.176 v -7.752 q 0,-0.544 0,-1.088 0.034,-0.544 0.136,-1.122 -0.612,0.034 -1.224,0.068 -0.578,0.034 -1.19,0.068 v -1.428 q 1.496,0 2.244,-0.136 0.782,-0.136 1.156,-0.34 0.374,-0.204 0.612,-0.442 h 0.986 q 0.068,0.34 0.068,0.782 0.034,0.442 0.068,1.02 1.02,-0.884 2.346,-1.428 1.326,-0.578 2.652,-0.578 1.7,0 2.856,0.612 1.156,0.612 1.802,1.666 1.156,-0.952 2.652,-1.598 1.53,-0.68 2.992,-0.68 2.958,0 4.352,1.802 1.394,1.768 1.326,5.814 l -0.034,6.324 q 0,0.68 -0.034,1.224 0,0.51 -0.102,1.088 0.544,-0.034 1.054,-0.034 0.544,-0.034 1.088,-0.068 v 1.394 h -6.936 v -1.02 q 1.054,0 1.462,-0.51 0.408,-0.544 0.476,-1.462 0.068,-0.952 0.068,-2.176 v -4.76 q 0,-2.924 -0.952,-4.386 -0.918,-1.462 -2.924,-1.428 -1.054,0 -2.108,0.476 -1.054,0.476 -1.836,1.19 0.17,0.544 0.238,1.19 0.102,0.612 0.102,1.292 -0.034,1.972 -0.034,3.978 0,2.006 -0.034,4.012 0,0.68 -0.034,1.224 0,0.51 -0.102,1.088 0.544,-0.034 1.054,-0.034 0.544,-0.034 1.088,-0.068 v 1.394 h -6.936 v -1.02 q 1.054,0 1.428,-0.51 0.408,-0.544 0.476,-1.462 0.102,-0.952 0.102,-2.176 l 0.034,-4.76 q 0.034,-2.924 -0.85,-4.42 -0.884,-1.496 -2.89,-1.462 -1.054,0 -2.074,0.476 -1.02,0.442 -1.734,1.156 0,0.408 0,0.884 0.034,0.442 0.034,0.952 v 8.738 q 0,0.68 -0.034,1.224 0,0.51 -0.102,1.088 0.544,-0.034 1.054,-0.034 0.544,-0.034 1.088,-0.068 v 1.394 z"/>
    <path d="m 270.48248,389.0448 -7.718,-18.088 q -0.748,-1.734 -1.054,-2.788 -0.306,-1.088 -0.408,-1.836 -0.476,0.034 -0.952,0.034 -0.476,0 -0.952,0.034 v -1.496 h 7.888 l -0.034,1.156 q -1.7,0.102 -2.04,1.054 -0.34,0.918 0.34,2.618 0.816,2.006 1.564,3.876 0.748,1.87 1.666,4.046 0.816,1.904 1.564,3.672 0.782,1.734 1.19,2.89 h 0.068 q 0.374,-1.19 0.748,-2.278 0.408,-1.088 0.952,-2.584 1.02,-2.856 1.7,-4.828 0.714,-1.972 1.224,-3.366 0.51,-1.394 0.85,-2.38 0.306,-0.884 0.544,-1.496 0.238,-0.612 0.442,-1.02 -0.646,0.034 -1.292,0.068 -0.646,0.034 -1.326,0.068 v -1.496 h 6.902 v 1.122 q -1.496,0.068 -2.312,0.782 -0.782,0.714 -1.428,2.55 -0.068,0.17 -0.17,0.476 -0.102,0.272 -0.34,0.918 -0.238,0.646 -0.68,1.904 -0.442,1.224 -1.224,3.332 -0.748,2.108 -1.938,5.304 -1.156,3.196 -2.822,7.752 z"/>
    <path d="m 281.77892,387.6848 q 1.054,0 1.462,-0.51 0.408,-0.544 0.476,-1.462 0.068,-0.952 0.068,-2.176 v -7.752 q 0,-0.544 0.034,-1.02 0.034,-0.51 0.102,-1.19 -0.612,0.034 -1.224,0.068 -0.578,0.034 -1.19,0.068 v -1.428 q 1.496,0 2.312,-0.136 0.816,-0.136 1.224,-0.34 0.442,-0.204 0.68,-0.442 h 0.986 v 13.736 q 0,0.68 -0.034,1.224 0,0.51 -0.102,1.088 0.544,-0.034 1.054,-0.034 0.544,-0.034 1.088,-0.068 v 1.394 h -6.936 z m 3.298,-19.686 q -0.714,0 -1.258,-0.578 -0.544,-0.578 -0.544,-1.428 0,-0.85 0.544,-1.428 0.578,-0.612 1.292,-0.612 0.782,0 1.292,0.612 0.544,0.578 0.544,1.428 0,0.85 -0.578,1.428 -0.544,0.578 -1.292,0.578 z"/>
    <path d="m 298.66942,389.2488 q -2.346,0 -4.25,-1.088 -1.87,-1.122 -2.958,-3.128 -1.088,-2.04 -1.088,-4.794 0,-2.38 1.054,-4.454 1.088,-2.074 3.026,-3.332 1.938,-1.292 4.488,-1.292 1.428,0 2.652,0.476 1.258,0.442 2.21,1.394 0.952,0.918 1.496,2.346 0.544,1.394 0.544,3.298 l -11.968,0.204 q 0,2.584 0.544,4.556 0.578,1.938 1.836,3.026 1.258,1.054 3.23,1.054 1.054,0 2.142,-0.374 1.122,-0.374 2.074,-1.02 0.952,-0.646 1.53,-1.428 l 0.816,0.68 q -0.918,1.428 -2.21,2.278 -1.292,0.85 -2.652,1.224 -1.36,0.374 -2.516,0.374 z m -4.692,-11.798 h 8.67 q 0,-1.224 -0.374,-2.346 -0.34,-1.156 -1.156,-1.87 -0.816,-0.748 -2.142,-0.748 -1.972,0 -3.298,1.19 -1.292,1.156 -1.7,3.774 z"/>
    <path d="m 308.00236,388.7048 v -1.02 q 1.054,0 1.462,-0.51 0.408,-0.544 0.476,-1.462 0.068,-0.952 0.068,-2.176 l 0.034,-7.752 q 0,-0.544 0,-1.088 0.034,-0.544 0.136,-1.122 -0.612,0.034 -1.224,0.068 -0.578,0.034 -1.19,0.068 v -1.428 q 1.496,0 2.244,-0.136 0.782,-0.136 1.156,-0.34 0.374,-0.204 0.612,-0.442 h 0.986 q 0.034,0.238 0.034,0.544 0.034,0.306 0.068,0.68 0.034,0.374 0.034,0.85 0.748,-0.646 1.632,-1.156 0.918,-0.51 1.904,-0.816 1.02,-0.306 2.006,-0.306 2.958,0 4.318,1.87 1.36,1.836 1.36,5.746 v 6.324 q 0,0.68 -0.034,1.224 0,0.51 -0.102,1.088 0.544,-0.034 1.054,-0.034 0.544,-0.034 1.088,-0.068 v 1.394 h -6.936 v -1.02 q 1.054,0 1.462,-0.51 0.408,-0.544 0.476,-1.462 0.068,-0.952 0.068,-2.176 v -4.76 q -0.034,-2.924 -0.986,-4.42 -0.918,-1.496 -2.924,-1.462 -1.224,0.034 -2.414,0.646 -1.156,0.612 -1.938,1.564 0.034,0.272 0.034,0.612 0,0.34 0,0.714 l -0.034,8.67 q 0,0.68 -0.034,1.224 0,0.51 -0.102,1.088 0.544,-0.034 1.054,-0.034 0.544,-0.034 1.088,-0.068 v 1.394 z"/>
    <path d="m 327.7547,388.7048 v -1.02 q 1.054,0 1.462,-0.51 0.408,-0.544 0.476,-1.462 0.068,-0.952 0.068,-2.176 l 0.034,-7.752 q 0,-0.544 0,-1.088 0.034,-0.544 0.136,-1.122 -0.612,0.034 -1.224,0.068 -0.578,0.034 -1.19,0.068 v -1.428 q 1.496,0 2.244,-0.136 0.782,-0.136 1.156,-0.34 0.374,-0.204 0.612,-0.442 h 0.986 q 0.034,0.238 0.034,0.544 0.034,0.306 0.068,0.68 0.034,0.374 0.034,0.85 0.748,-0.646 1.632,-1.156 0.918,-0.51 1.904,-0.816 1.02,-0.306 2.006,-0.306 2.958,0 4.318,1.87 1.36,1.836 1.36,5.746 v 6.324 q 0,0.68 -0.034,1.224 0,0.51 -0.102,1.088 0.544,-0.034 1.054,-0.034 0.544,-0.034 1.088,-0.068 v 1.394 h -6.936 v -1.02 q 1.054,0 1.462,-0.51 0.408,-0.544 0.476,-1.462 0.068,-0.952 0.068,-2.176 v -4.76 q -0.034,-2.924 -0.986,-4.42 -0.918,-1.496 -2.924,-1.462 -1.224,0.034 -2.414,0.646 -1.156,0.612 -1.938,1.564 0.034,0.272 0.034,0.612 0,0.34 0,0.714 l -0.034,8.67 q 0,0.68 -0.034,1.224 0,0.51 -0.102,1.088 0.544,-0.034 1.054,-0.034 0.544,-0.034 1.088,-0.068 v 1.394 z"/>
    <path d="m 357.84305,388.7048 q -0.102,-0.578 -0.136,-1.02 -0.034,-0.442 -0.102,-0.918 -1.156,1.156 -2.516,1.836 -1.326,0.646 -2.822,0.646 -2.584,0 -3.842,-1.156 -1.258,-1.19 -1.258,-2.89 0,-1.564 0.952,-2.686 0.986,-1.156 2.516,-1.87 1.564,-0.748 3.366,-1.088 1.836,-0.374 3.536,-0.34 v -2.108 q 0,-1.19 -0.204,-2.244 -0.204,-1.054 -0.884,-1.734 -0.68,-0.68 -2.176,-0.714 -0.986,-0.034 -2.04,0.374 -1.02,0.408 -1.496,1.394 0.272,0.272 0.34,0.646 0.102,0.34 0.102,0.646 0,0.408 -0.34,0.952 -0.34,0.51 -1.19,0.476 -0.714,0 -1.088,-0.476 -0.374,-0.51 -0.374,-1.19 0,-1.156 0.85,-2.074 0.884,-0.918 2.414,-1.462 1.53,-0.544 3.468,-0.544 2.856,0 4.216,1.53 1.36,1.496 1.326,4.76 0,1.258 0,2.55 0,1.258 -0.034,2.55 0,1.258 0,2.55 0,0.544 -0.034,1.088 -0.034,0.544 -0.102,1.224 0.612,-0.034 1.19,-0.068 0.612,-0.034 1.224,-0.068 v 1.428 z m -0.306,-8.33 q -1.156,0.034 -2.448,0.306 -1.258,0.238 -2.346,0.748 -1.054,0.51 -1.734,1.36 -0.646,0.816 -0.612,2.006 0.068,1.258 0.816,1.904 0.782,0.612 1.836,0.612 1.394,0 2.414,-0.51 1.054,-0.544 2.074,-1.496 -0.034,-0.374 -0.034,-0.816 0,-0.442 0,-0.918 0,-0.17 0,-1.088 0.034,-0.918 0.034,-2.108 z"/>
    <path d="m 366.6543,394.7908 -0.918,-0.68 q 0.374,-0.476 0.782,-1.36 0.408,-0.884 0.646,-1.972 0.272,-1.054 0.136,-2.074 -0.238,0.102 -0.442,0.136 -0.204,0.068 -0.408,0.068 -0.646,0 -1.122,-0.476 -0.442,-0.476 -0.442,-1.19 0,-0.952 0.544,-1.462 0.578,-0.51 1.326,-0.51 1.19,0 1.802,0.918 0.612,0.884 0.612,2.176 0,0.85 -0.34,2.074 -0.306,1.224 -0.884,2.38 -0.544,1.19 -1.292,1.972 z"/>
    <path d="m 378.23596,388.7048 v -1.122 q 1.02,0 1.564,-0.544 0.544,-0.544 0.884,-1.496 0.374,-0.952 0.85,-2.21 l 7.004,-19.074 h 0.816 l 7.582,19.346 q 0.272,0.714 0.612,1.836 0.34,1.122 0.272,1.904 0.578,-0.034 1.156,-0.068 0.578,-0.034 1.156,-0.068 v 1.496 h -7.786 v -1.122 q 1.292,-0.034 1.7,-0.578 0.408,-0.544 0.306,-1.292 -0.102,-0.748 -0.34,-1.36 l -1.19,-3.196 -8.84,0.204 -1.19,3.638 q -0.238,0.816 -0.442,1.292 -0.17,0.476 -0.408,1.054 0.68,-0.034 1.326,-0.068 0.68,-0.034 1.326,-0.068 v 1.496 z m 6.256,-8.806 h 7.854 l -2.414,-6.494 q -0.374,-1.054 -0.782,-2.074 -0.374,-1.054 -0.748,-2.108 h -0.068 q -0.34,0.952 -0.714,1.904 -0.34,0.952 -0.714,1.938 z"/>
    <path d="m 407.52635,389.2488 q -1.836,0 -3.094,-0.68 -1.224,-0.68 -1.87,-2.312 -0.612,-1.632 -0.612,-4.42 v -6.052 q 0,-0.544 0,-1.088 0.034,-0.544 0.136,-1.122 -0.578,0.034 -1.19,0.068 -0.578,0 -1.156,0.034 v -1.394 h 1.054 q 1.462,0 2.108,-0.272 0.68,-0.306 1.054,-0.646 h 0.986 v 10.37 q 0,2.924 0.816,4.386 0.85,1.428 2.856,1.394 1.292,-0.034 2.448,-0.782 1.19,-0.782 1.904,-1.836 v -8.738 q 0,-0.816 0.034,-1.394 0.034,-0.612 0.136,-1.19 -0.612,0.034 -1.224,0.068 -0.612,0 -1.224,0.034 v -1.394 h 1.054 q 1.462,0 2.108,-0.272 0.68,-0.306 1.054,-0.646 h 0.986 l -0.034,12.852 q 0,0.544 -0.034,1.53 -0.034,0.986 -0.102,1.666 0.612,-0.034 1.224,-0.068 0.612,-0.034 1.224,-0.068 v 1.428 h -4.862 q -0.102,-0.578 -0.17,-1.088 -0.034,-0.51 -0.068,-0.952 -1.054,1.054 -2.55,1.836 -1.496,0.748 -2.992,0.748 z"/>
    <path d="m 426.74267,389.2488 q -1.7,0 -3.026,-0.476 -1.326,-0.442 -2.176,-1.02 l 0.136,1.19 h -1.428 l -0.204,-5.848 h 1.054 q 0.068,1.394 0.782,2.516 0.714,1.088 1.836,1.7 1.122,0.612 2.414,0.612 0.884,0 1.734,-0.272 0.85,-0.306 1.428,-0.884 0.578,-0.612 0.578,-1.53 0,-0.952 -0.578,-1.564 -0.544,-0.646 -1.462,-1.122 -0.918,-0.476 -1.972,-0.884 -1.02,-0.408 -2.04,-0.85 -1.02,-0.442 -1.904,-1.054 -0.85,-0.612 -1.36,-1.496 -0.51,-0.884 -0.51,-2.176 0,-0.714 0.272,-1.564 0.272,-0.85 0.918,-1.598 0.646,-0.782 1.768,-1.258 1.122,-0.51 2.856,-0.51 0.918,0 2.04,0.306 1.122,0.306 2.176,1.156 l -0.068,-1.292 h 1.428 v 5.95 h -1.088 q -0.068,-1.19 -0.544,-2.278 -0.476,-1.122 -1.394,-1.836 -0.918,-0.748 -2.38,-0.748 -1.564,0 -2.448,0.782 -0.884,0.782 -0.884,1.802 0,1.054 0.646,1.768 0.68,0.68 1.734,1.19 1.054,0.51 2.244,0.986 1.292,0.544 2.516,1.19 1.224,0.646 2.006,1.632 0.782,0.952 0.782,2.482 0,1.7 -0.884,2.822 -0.85,1.122 -2.21,1.632 -1.326,0.544 -2.788,0.544 z"/>
    <path d="m 441.00296,389.2488 q -0.782,0 -1.598,-0.238 -0.816,-0.204 -1.53,-0.85 -0.68,-0.646 -1.088,-1.87 -0.408,-1.258 -0.408,-3.298 l 0.068,-9.86 -2.618,0.034 v -1.462 q 0.884,-0.034 1.802,-0.646 0.918,-0.646 1.632,-1.734 0.748,-1.088 1.02,-2.38 h 1.156 v 4.76 h 5.712 v 1.326 l -5.712,0.068 -0.068,9.452 q 0,1.53 0.238,2.618 0.272,1.054 0.85,1.598 0.578,0.544 1.496,0.544 0.952,0 1.768,-0.544 0.85,-0.544 1.496,-1.496 l 0.918,0.748 q -0.748,1.122 -1.496,1.768 -0.714,0.646 -1.394,0.952 -0.68,0.34 -1.258,0.408 -0.578,0.102 -0.986,0.102 z"/>
    <path d="m 446.8594,387.6848 q 1.054,0 1.462,-0.51 0.408,-0.544 0.476,-1.462 0.068,-0.952 0.068,-2.176 v -7.752 q 0,-0.544 0,-1.088 0.034,-0.544 0.136,-1.122 -0.612,0.034 -1.224,0.068 -0.578,0 -1.19,0.034 v -1.394 h 1.054 q 1.462,0 2.006,-0.272 0.578,-0.306 0.952,-0.646 h 0.986 q 0.068,0.544 0.102,1.36 0.034,0.782 0.068,2.006 0.51,-0.85 1.394,-1.666 0.884,-0.816 1.972,-1.36 1.122,-0.544 2.346,-0.544 0.952,0 1.666,0.51 0.714,0.51 0.714,1.632 0,0.272 -0.17,0.68 -0.17,0.374 -0.544,0.68 -0.374,0.272 -0.986,0.272 -0.748,-0.034 -1.19,-0.578 -0.442,-0.578 -0.34,-1.326 -0.85,-0.034 -1.768,0.442 -0.884,0.476 -1.666,1.326 -0.782,0.816 -1.394,1.938 l 0.034,8.364 q 0,0.68 -0.034,1.224 0,0.51 -0.102,1.088 0.544,-0.034 1.054,-0.034 0.544,-0.034 1.088,-0.068 v 1.394 h -6.97 z"/>
    <path d="m 460.70157,387.6848 q 1.054,0 1.462,-0.51 0.408,-0.544 0.476,-1.462 0.068,-0.952 0.068,-2.176 v -7.752 q 0,-0.544 0.034,-1.02 0.034,-0.51 0.102,-1.19 -0.612,0.034 -1.224,0.068 -0.578,0.034 -1.19,0.068 v -1.428 q 1.496,0 2.312,-0.136 0.816,-0.136 1.224,-0.34 0.442,-0.204 0.68,-0.442 h 0.986 v 13.736 q 0,0.68 -0.034,1.224 0,0.51 -0.102,1.088 0.544,-0.034 1.054,-0.034 0.544,-0.034 1.088,-0.068 v 1.394 h -6.936 z m 3.298,-19.686 q -0.714,0 -1.258,-0.578 -0.544,-0.578 -0.544,-1.428 0,-0.85 0.544,-1.428 0.578,-0.612 1.292,-0.612 0.782,0 1.292,0.612 0.544,0.578 0.544,1.428 0,0.85 -0.578,1.428 -0.544,0.578 -1.292,0.578 z"/>
    <path d="m 479.70007,388.7048 q -0.102,-0.578 -0.136,-1.02 -0.034,-0.442 -0.102,-0.918 -1.156,1.156 -2.516,1.836 -1.326,0.646 -2.822,0.646 -2.584,0 -3.842,-1.156 -1.258,-1.19 -1.258,-2.89 0,-1.564 0.952,-2.686 0.986,-1.156 2.516,-1.87 1.564,-0.748 3.366,-1.088 1.836,-0.374 3.536,-0.34 v -2.108 q 0,-1.19 -0.204,-2.244 -0.204,-1.054 -0.884,-1.734 -0.68,-0.68 -2.176,-0.714 -0.986,-0.034 -2.04,0.374 -1.02,0.408 -1.496,1.394 0.272,0.272 0.34,0.646 0.102,0.34 0.102,0.646 0,0.408 -0.34,0.952 -0.34,0.51 -1.19,0.476 -0.714,0 -1.088,-0.476 -0.374,-0.51 -0.374,-1.19 0,-1.156 0.85,-2.074 0.884,-0.918 2.414,-1.462 1.53,-0.544 3.468,-0.544 2.856,0 4.216,1.53 1.36,1.496 1.326,4.76 0,1.258 0,2.55 0,1.258 -0.034,2.55 0,1.258 0,2.55 0,0.544 -0.034,1.088 -0.034,0.544 -0.102,1.224 0.612,-0.034 1.19,-0.068 0.612,-0.034 1.224,-0.068 v 1.428 z m -0.306,-8.33 q -1.156,0.034 -2.448,0.306 -1.258,0.238 -2.346,0.748 -1.054,0.51 -1.734,1.36 -0.646,0.816 -0.612,2.006 0.068,1.258 0.816,1.904 0.782,0.612 1.836,0.612 1.394,0 2.414,-0.51 1.054,-0.544 2.074,-1.496 -0.034,-0.374 -0.034,-0.816 0,-0.442 0,-0.918 0,-0.17 0,-1.088 0.034,-0.918 0.034,-2.108 z"/>
    <path d="m 488.64733,389.2488 q -0.782,0 -1.394,-0.612 -0.578,-0.646 -0.578,-1.564 0,-0.918 0.612,-1.564 0.612,-0.646 1.394,-0.646 0.85,0 1.394,0.646 0.578,0.646 0.578,1.564 0,0.918 -0.612,1.564 -0.612,0.612 -1.394,0.612 z"/>
  </g>
  <g aria-label="Hi." style="fill:#111;stroke:none" transform="translate(42.96505,-90)">
    <path d="m 149.02405,152.98719 h 18.304 v 24.552 h 21.912 v -24.552 h 18.304 v 61.688 h -18.304 v -22.968 h -21.912 v 22.968 h -18.304 z"/>
    <path d="m 218.12192,166.80319 h 17.776 v 47.872 h -17.776 z m 8.8,-22.792 q 4.048,0 6.6,2.552 2.552,2.552 2.552,6.6 0,4.048 -2.552,6.6 -2.552,2.552 -6.6,2.552 -4.048,0 -6.688,-2.552 -2.552,-2.552 -2.552,-6.6 0,-4.048 2.552,-6.6 2.64,-2.552 6.688,-2.552 z"/>
    <path d="m 252.46117,198.83519 q 3.696,0 5.984,2.288 2.376,2.288 2.376,5.896 0,3.696 -2.376,6.072 -2.288,2.288 -5.984,2.288 -3.608,0 -5.984,-2.288 -2.288,-2.376 -2.288,-6.072 0,-3.608 2.288,-5.896 2.376,-2.288 5.984,-2.288 z"/>
  </g>
</svg>
