<svg xmlns="http://www.w3.org/2000/svg" width="307" height="92" viewBox="0 100 460.49043 174.8">
  <g aria-label="Hi, I'm Lena." style="stroke:#111;stroke-width:3.04;stroke-linecap:round;fill:none;">
    <path d="M 5.3677567,137.1668 C -11.318301,164.72759 -22.109553,188.13615 -30.549252,211.53156"/>
    <path d="M 52.575748,127.4332 C 22.172381,156.75942 2.9776303,207.38624 0.5009523,239.75902"/>
    <path d="m -41.168273,196.9608 c 15.045486,-11.11701 74.561838,-31.84778 75.656006,-21.99986 l 0.08397,0.75572"/>
    <path d="m 50.39834,179.325 c -5.644927,6.34102 -7.01894,13.20303 -3.0875,14.30937 6.150535,1.73082 18.483268,-3.78788 26.303125,-10.86562"/>
    <path d="m 56.632715,164.48125 c -0.208079,-0.5202 -3.224988,2.64434 -2.434375,3.97813 0.751137,1.26719 2.590237,-0.51087 2.315625,-0.83126"/>
    <path d="m 85.607715,191.2 c -1.232289,3.87396 -3.874483,6.33802 -7.00625,8.3125"/>
    <path d="m 137.34967,173.11362 c -7.45066,-4.68821 -6.55779,-12.49905 2.1832,-21.49604 3.59795,-3.70333 17.53169,-14.68159 26.87005,-12.51137 4.7632,1.10696 1.64794,11.25244 -0.16792,16.37394 -8.32603,23.48285 -35.69302,63.35261 -38.54175,65.4118"/>
    <path d="m 183.70052,149.68629 -4.8702,9.82437"/>
    <path d="m 195.45618,177.31207 c -4.48937,6.21512 -12.25145,21.94465 -6.63354,18.30523 5.02295,-3.25399 12.62294,-13.705 16.87775,-13.77091 3.14518,-0.0487 1.57445,9.37081 4.70225,8.22896 5.50975,-2.01142 9.26205,-9.51487 11.83962,-5.45798 1.97827,3.11365 1.93251,5.30241 5.70989,6.38163 7.93065,2.26583 18.40987,-6.89093 19.31285,-8.22895"/>
    <path d="m 313.13271,141.91875 c 0,0 -0.16465,3.36333 -0.83125,4.86875 -8.04451,18.16743 -49.88566,62.65992 -29.56875,67.56875 10.80969,2.61176 33.29788,-7.14675 49.28125,-14.725 16.58159,-7.86188 42.39375,-18.05 42.39375,-18.05"/>
    <path d="m 376.54521,188.70625 c 0,0 9.20289,-12.24001 6.15215,-12.25162 -2.94583,-0.0112 -4.83246,2.04877 -6.19965,4.65815 -1.46868,2.80308 -1.9729,7.05785 0.0475,9.49347 2.26506,2.73056 6.92909,2.45424 10.45,2.01875 7.24073,-0.89558 13.48041,-3.63072 18.90759,-8.50678 1.47958,-1.32933 4.68292,-6.70166 4.68292,-6.70166 0,0 -6.81627,9.26515 -6.38616,14.33397 0.40039,4.71846 26.35333,-17.67091 24.07147,-8.71896 -0.96967,3.80411 1.91781,6.96614 5.88831,8.1888 6.17574,1.90173 17.79213,-8.09537 17.79213,-8.09537"/>
    <path d="m 467.5155,185.8769 c 0,0 -1.88405,-5.69245 -4.80484,-6.44945 -3.56562,-0.92413 -7.63137,0.63961 -10.69982,3.63817 -1.85114,1.80898 -3.58871,7.44492 -1.00665,7.26585 12.70172,-0.88087 27.13069,-18.81837 22.18046,-10.99046 -2.2656,3.58263 -3.73216,6.75487 -0.51226,9.39927 4.06391,3.33755 13.63342,-0.0956 19.44601,-3.36719 1.09014,-0.61358 2.43511,-2.18319 2.43511,-2.18319"/>
    <path d="m 503.90458,191.08125 c 0,0 -2.6352,0.6868 -3.26562,2.19687 -0.35149,0.84193 -0.99472,1.9418 -0.11875,2.19688 0.85995,0.25042 2.25625,-1.72188 2.25625,-1.72188"/>
  </g>
</svg>
