<svg xmlns="http://www.w3.org/2000/svg" width="307" height="92" viewBox="0 100 460.49 174.8"><g aria-label="Hi, I'm Lena." style="fill:none;stroke-linecap:round;stroke-width:3.04;stroke:#757575"><path d="M5.37 137.17C-11.32 164.73-22.11 188.14-30.55 211.53" class="draw_0"/><path d="M52.58 127.43C22.17 156.76 2.98 207.39 0.5 239.76" class="draw_1"/><path d="m-41.17 196.96c15.05-11.12 74.56-31.85 75.66-22l0.08 0.76" class="draw_2"/><path d="m50.4 179.33c-5.64 6.34-7.02 13.2-3.09 14.31 6.15 1.73 18.48-3.79 26.3-10.87" class="draw_3"/><path d="m56.63 164.48c-0.21-0.52-3.22 2.64-2.43 3.98 0.75 1.27 2.59-0.51 2.32-0.83" class="draw_4"/><path d="m85.61 191.2c-1.23 3.87-3.87 6.34-7.01 8.31" class="draw_5"/><path d="m137.35 173.11c-7.45-4.69-6.56-12.5 2.18-21.5 3.6-3.7 17.53-14.68 26.87-12.51 4.76 1.11 1.65 11.25-0.17 16.37-8.33 23.48-35.69 63.35-38.54 65.41" class="draw_6"/><path d="m183.7 149.69-4.87 9.82" class="draw_7"/><path d="m195.46 177.31c-4.49 6.22-12.25 21.94-6.63 18.31 5.02-3.25 12.62-13.7 16.88-13.77 3.15-0.05 1.57 9.37 4.7 8.23 5.51-2.01 9.26-9.51 11.84-5.46 1.98 3.11 1.93 5.3 5.71 6.38 7.93 2.27 18.41-6.89 19.31-8.23" class="draw_8"/><path d="m313.13 141.92c0 0-0.16 3.36-0.83 4.87-8.04 18.17-49.89 62.66-29.57 67.57 10.81 2.61 33.3-7.15 49.28-14.72 16.58-7.86 42.39-18.05 42.39-18.05" class="draw_9"/><path d="m376.55 188.71c0 0 9.2-12.24 6.15-12.25-2.95-0.01-4.83 2.05-6.2 4.66-1.47 2.8-1.97 7.06 0.05 9.49 2.27 2.73 6.93 2.45 10.45 2.02 7.24-0.9 13.48-3.63 18.91-8.51 1.48-1.33 4.68-6.7 4.68-6.7 0 0-6.82 9.27-6.39 14.33 0.4 4.72 26.35-17.67 24.07-8.72-0.97 3.8 1.92 6.97 5.89 8.19 6.18 1.9 17.79-8.1 17.79-8.1" class="draw_10"/><path d="m467.52 185.88c0 0-1.88-5.69-4.8-6.45-3.57-0.92-7.63 0.64-10.7 3.64-1.85 1.81-3.59 7.44-1.01 7.27 12.7-0.88 27.13-18.82 22.18-10.99-2.27 3.58-3.73 6.75-0.51 9.4 4.06 3.34 13.63-0.1 19.45-3.37 1.09-0.61 2.44-2.18 2.44-2.18" class="draw_11"/><path d="m503.9 191.08c0 0-2.64 0.69-3.27 2.2-0.35 0.84-0.99 1.94-0.12 2.2 0.86 0.25 2.26-1.72 2.26-1.72" class="draw_12"/></g><style data-made-with="vivus-instant">.draw_0{stroke-dasharray:83 85;stroke-dashoffset:84;animation:draw 234ms ease-in-out 0ms forwards;}.draw_1{stroke-dasharray:127 129;stroke-dashoffset:128;animation:draw 357ms ease-in-out 234ms forwards;}.draw_2{stroke-dasharray:83 85;stroke-dashoffset:84;animation:draw 234ms ease-in-out 592ms forwards;}.draw_3{stroke-dasharray:47 49;stroke-dashoffset:48;animation:draw 134ms ease-in-out 826ms forwards;}.draw_4{stroke-dasharray:9 11;stroke-dashoffset:10;animation:draw 27ms ease-in-out 960ms forwards;}.draw_5{stroke-dasharray:12 14;stroke-dashoffset:13;animation:draw 36ms ease-in-out 988ms forwards;}.draw_6{stroke-dasharray:151 153;stroke-dashoffset:152;animation:draw 424ms ease-in-out 1625ms forwards;}.draw_7{stroke-dasharray:11 13;stroke-dashoffset:12;animation:draw 33ms ease-in-out 2049ms forwards;}.draw_8{stroke-dasharray:101 103;stroke-dashoffset:102;animation:draw 284ms ease-in-out 2083ms forwards;}.draw_9{stroke-dasharray:184 186;stroke-dashoffset:185;animation:draw 516ms ease-in-out 2368ms forwards;}.draw_10{stroke-dasharray:150 152;stroke-dashoffset:151;animation:draw 421ms ease-in-out 2884ms forwards;}.draw_11{stroke-dasharray:93 95;stroke-dashoffset:94;animation:draw 262ms ease-in-out 3306ms forwards;}.draw_12{stroke-dasharray:10 12;stroke-dashoffset:11;animation:draw 30ms ease-in-out 3569ms forwards;}@keyframes draw{100%{stroke-dashoffset:0;}}</style></svg>