<svg xmlns="http://www.w3.org/2000/svg" width="160.59" height="24" viewBox="0 0 240.89 36">
  <style>svg{color:#111}.icon{fill:none;stroke:currentColor;stroke-width:1.5;stroke-linecap:round;stroke-linejoin:round;}.text{fill:currentColor;stroke:none;}.highlight{animation:blink 30s linear infinite;stroke:none;fill:#f9c940}@keyframes blink{0%{opacity:0;}32.95%{opacity:0;}33%{opacity:1;}33.5%{opacity:1;}33.55%{opacity:0;}78.95%{opacity:0;}79%{opacity:1;}79.5%{opacity:1;}79.55%{opacity:0;}100%{opacity:0;}}</style>
  <rect class="highlight" width="206.29" height="8" x="31.5" y="26.60"/>
  <path class="icon" d="m22.65 20.39-10.65 7.74-10.65-7.74a0.84 0.84 0 0 1-0.3-0.94l1.22-3.78 2.44-7.51a0.42 0.42 0 0 1 0.11-0.16 0.43 0.43 0 0 1 0.58 0 0.42 0.42 0 0 1 0.11 0.18l2.44 7.49h8.1l2.44-7.51a0.42 0.42 0 0 1 0.11-0.16 0.43 0.43 0 0 1 0.58 0 0.42 0.42 0 0 1 0.11 0.18l2.44 7.51 1.27 3.76a0.84 0.84 0 0 1-0.35 0.94z"/>
  <g aria-label="LenaSchnedlitz" class="text"><path d="m31.5 8.82h1.93v17.83h8.62v1.74H31.49Z"/><path d="m51.26 13.66q3.42 0 5.21 2.18 1.79 2.16 1.65 5.82H45.88q0.2 2.35 1.74 3.81 1.54 1.43 3.81 1.43 1.4 0 2.6-0.5 1.2-0.5 2.07-1.43l1.06 1.06q-1.06 1.15-2.58 1.79-1.48 0.62-3.28 0.62-2.13 0-3.78-0.92-1.65-0.95-2.6-2.63Q44 23.21 44 21.05q0-2.13 0.92-3.81 0.95-1.71 2.6-2.63 1.65-0.95 3.72-0.95zm5.18 6.55Q56.3 17.91 54.9 16.57 53.53 15.2 51.29 15.2q-2.21 0-3.7 1.37-1.48 1.37-1.71 3.64z"/><path d="m69.73 13.66q2.63 0 4.12 1.54 1.51 1.51 1.51 4.17v9.02h-1.9v-8.57q0-2.07-1.15-3.25-1.15-1.18-3.19-1.18-2.27 0.03-3.64 1.4-1.34 1.37-1.54 3.7v7.9H62.06V13.72h1.88v3.42q0.76-1.71 2.21-2.58 1.48-0.87 3.58-0.9z"/><path d="m89.59 28.39-0.03-2.46q-0.87 1.29-2.27 1.93-1.4 0.62-3.22 0.62-1.48 0-2.63-0.56-1.12-0.59-1.74-1.6-0.62-1.01-0.62-2.27 0-1.9 1.46-3 1.48-1.09 4.06-1.09h4.93v-1.12q0-1.74-1.04-2.69-1.04-0.95-3.02-0.95-2.35 0-4.73 1.76L79.9 15.67q1.48-1.04 2.83-1.51 1.34-0.5 3.08-0.5 2.66 0 4.12 1.34 1.46 1.32 1.48 3.67l0.03 9.72zm-5.18-1.48q1.96 0 3.3-0.9 1.37-0.92 1.85-2.58v-2.02h-4.73q-1.93 0-2.94 0.64-1.01 0.64-1.01 1.93 0 1.32 0.95 2.13 0.98 0.78 2.58 0.78z"/><path d="m107.66 12.01q-1.2-0.76-2.63-1.15-1.43-0.42-2.69-0.42-2.02 0-3.25 0.81-1.2 0.78-1.2 2.16 0 1.2 0.67 1.96 0.67 0.76 1.65 1.2 0.98 0.42 2.69 0.95 1.99 0.59 3.19 1.18 1.23 0.56 2.07 1.65 0.87 1.09 0.87 2.88 0 1.57-0.9 2.77-0.87 1.2-2.46 1.88-1.6 0.64-3.67 0.64-2.04 0-4-0.81-1.93-0.81-3.33-2.16l0.9-1.6q1.32 1.29 3.05 2.02 1.74 0.73 3.42 0.73 2.24 0 3.56-0.9 1.32-0.92 1.32-2.46 0-1.23-0.67-2.02-0.67-0.78-1.65-1.2-0.98-0.42-2.74-0.98-1.99-0.62-3.19-1.15-1.2-0.56-2.04-1.62-0.84-1.09-0.84-2.83 0-1.48 0.84-2.6 0.84-1.12 2.35-1.71 1.51-0.62 3.5-0.62 1.6 0 3.19 0.48 1.62 0.48 2.86 1.26z"/><path d="m123.69 17.05q-1.79-1.74-4.4-1.74-1.57 0-2.83 0.73-1.26 0.73-1.96 2.04-0.7 1.29-0.7 2.97 0 1.68 0.7 3 0.7 1.32 1.96 2.04 1.26 0.73 2.83 0.73 1.43 0 2.6-0.5 1.2-0.5 2.02-1.46l1.06 1.12q-0.98 1.18-2.46 1.82-1.48 0.64-3.3 0.64-2.1 0-3.75-0.92-1.65-0.95-2.6-2.63-0.92-1.71-0.92-3.84 0-2.13 0.92-3.81 0.95-1.71 2.6-2.63 1.65-0.95 3.75-0.95 1.71 0 3.11 0.56 1.43 0.56 2.44 1.57z"/><path d="m137 13.66q2.63 0 4.12 1.54 1.51 1.51 1.51 4.17v9.02h-1.9v-8.57q0-2.07-1.15-3.25-1.15-1.18-3.19-1.18-2.44 0.03-3.84 1.62-1.37 1.57-1.37 4.17v7.2H129.3V7.61h1.88v9.58q1.48-3.47 5.82-3.53z"/><path d="m155.32 13.66q2.63 0 4.12 1.54 1.51 1.51 1.51 4.17v9.02h-1.9v-8.57q0-2.07-1.15-3.25-1.15-1.18-3.19-1.18-2.27 0.03-3.64 1.4-1.34 1.37-1.54 3.7v7.9h-1.88V13.72h1.88v3.42q0.76-1.71 2.21-2.58 1.48-0.87 3.58-0.9z"/><path d="m171.68 13.66q3.42 0 5.21 2.18 1.79 2.16 1.65 5.82H166.3q0.2 2.35 1.74 3.81 1.54 1.43 3.81 1.43 1.4 0 2.6-0.5 1.2-0.5 2.07-1.43l1.06 1.06q-1.06 1.15-2.58 1.79-1.48 0.62-3.28 0.62-2.13 0-3.78-0.92-1.65-0.95-2.6-2.63-0.92-1.68-0.92-3.84 0-2.13 0.92-3.81 0.95-1.71 2.6-2.63 1.65-0.95 3.72-0.95zm5.18 6.55q-0.14-2.3-1.54-3.64-1.37-1.37-3.61-1.37-2.21 0-3.7 1.37-1.48 1.37-1.71 3.64z"/><path d="m195.84 7.61v20.78h-1.88v-3.36q-0.84 1.65-2.35 2.58-1.51 0.9-3.53 0.9-2.07 0-3.7-0.95-1.62-0.95-2.52-2.66-0.9-1.71-0.9-3.86 0-2.16 0.9-3.84 0.92-1.68 2.52-2.63 1.62-0.95 3.67-0.95 2.02 0 3.53 0.92 1.54 0.92 2.38 2.58V7.61Zm-7.42 19.26q1.6 0 2.86-0.73 1.26-0.76 1.96-2.07 0.73-1.32 0.73-3 0-1.68-0.73-3-0.7-1.34-1.96-2.1-1.26-0.76-2.86-0.76-1.6 0-2.86 0.76-1.26 0.76-1.99 2.1-0.73 1.32-0.73 3 0 1.68 0.7 3 0.73 1.32 1.99 2.07 1.29 0.73 2.88 0.73z"/><path d="m201.6 7.61h1.88v20.78h-1.88z"/><path d="M209.12 13.72H211v14.67h-1.88zm0.95-5.54q0.56 0 0.92 0.39 0.36 0.36 0.36 0.92 0 0.56-0.39 0.95-0.36 0.39-0.9 0.39-0.56 0-0.95-0.39-0.36-0.39-0.36-0.95 0-0.56 0.36-0.92 0.39-0.39 0.95-0.39z"/><path d="m223.84 27.38q-1.51 1.04-3.25 1.09-1.68 0-2.66-1.04-0.98-1.04-0.98-3.11v-8.74h-2.1l-0.03-1.46h2.13v-3.78h1.88v3.78l4.76-0.03v1.48h-4.76V24q0 2.72 2.02 2.72 1.12 0 2.44-0.78z"/><path d="m226.24 13.72 11.45 0.03v1.4l-9.46 11.68 9.66 0.03v1.57L225.96 28.4v-1.43l9.46-11.68-9.18-0.03z"/></g>
</svg>
