<svg xmlns="http://www.w3.org/2000/svg" width="161.21" height="24" viewBox="0 0 241.81 36">
  <style>svg{color:#111}.icon{fill:none;stroke:currentColor;stroke-width:1.5;stroke-linecap:round;stroke-linejoin:round;}.text{fill:currentColor;stroke:none;}.highlight{animation:blink 30s linear infinite;stroke:none;fill:#33bbee}@keyframes blink{0%{opacity:0;}61.95%{opacity:0;}62%{opacity:1;}62.5%{opacity:1;}62.55%{opacity:0;}97.95%{opacity:0;}98%{opacity:1;}98.5%{opacity:1;}98.55%{opacity:0;}100%{opacity:0;}}</style>
  <rect class="highlight" width="207.29" height="8" x="31.5" y="26.60"/>
  <path d="m16 14a6 6 0 0 1 6 6v7h-4v-7a2 2 0 0 0-2-2 2 2 0 0 0-2 2v7h-4v-7a6 6 0 0 1 6-6z" class="icon"/>
  <rect x="2" y="15" width="4" height="12" class="icon"/>
  <circle cx="4" cy="10" r="2" class="icon"/>
  <g aria-label="/lenaschnedlitz" class="text"><path d="m39.84 5.29h1.68L32.79 31.75h-1.68z"/><path d="m42.99 7.5h1.88V28.28H42.99Z"/><path d="m56.22 13.55q3.42 0 5.21 2.18 1.79 2.16 1.65 5.82H50.85q0.2 2.35 1.74 3.81 1.54 1.43 3.81 1.43 1.4 0 2.6-0.5 1.2-0.5 2.07-1.43l1.06 1.06q-1.06 1.15-2.58 1.79-1.48 0.62-3.28 0.62-2.13 0-3.78-0.92-1.65-0.95-2.6-2.63-0.92-1.68-0.92-3.84 0-2.13 0.92-3.81 0.95-1.71 2.6-2.63 1.65-0.95 3.72-0.95zm5.18 6.55q-0.14-2.3-1.54-3.64-1.37-1.37-3.61-1.37-2.21 0-3.7 1.37-1.48 1.37-1.71 3.64z"/><path d="m74.7 13.55q2.63 0 4.12 1.54 1.51 1.51 1.51 4.17v9.02H78.42V19.71q0-2.07-1.15-3.25-1.15-1.18-3.19-1.18-2.27 0.03-3.64 1.4-1.34 1.37-1.54 3.7v7.9H67.03V13.6h1.88v3.42q0.76-1.71 2.21-2.58 1.48-0.87 3.58-0.9z"/><path d="m94.56 28.28-0.03-2.46q-0.87 1.29-2.27 1.93-1.4 0.62-3.22 0.62-1.48 0-2.63-0.56-1.12-0.59-1.74-1.6-0.62-1.01-0.62-2.27 0-1.9 1.46-3 1.48-1.09 4.06-1.09h4.93v-1.12q0-1.74-1.04-2.69-1.04-0.95-3.02-0.95-2.35 0-4.73 1.76l-0.84-1.29q1.48-1.04 2.83-1.51 1.34-0.5 3.08-0.5 2.66 0 4.12 1.34 1.46 1.32 1.48 3.67l0.03 9.72zm-5.18-1.48q1.96 0 3.3-0.9 1.37-0.92 1.85-2.58v-2.02h-4.73q-1.93 0-2.94 0.64-1.01 0.64-1.01 1.93 0 1.32 0.95 2.13 0.98 0.78 2.58 0.78z"/><path d="m109.01 16.21q-0.84-0.53-1.88-0.81-1.04-0.31-2.04-0.31-1.4 0-2.27 0.56-0.84 0.53-0.84 1.62 0 0.76 0.45 1.23 0.48 0.48 1.15 0.78 0.7 0.28 1.93 0.64 1.51 0.45 2.46 0.9 0.95 0.42 1.62 1.26 0.67 0.81 0.67 2.16 0 1.99-1.51 3.05-1.51 1.04-3.78 1.04-1.6 0-3.08-0.53-1.48-0.53-2.49-1.51l0.76-1.34q0.95 0.87 2.24 1.37 1.32 0.5 2.66 0.5 1.48 0 2.41-0.62 0.95-0.62 0.95-1.79 0-0.81-0.48-1.32-0.48-0.53-1.2-0.81-0.7-0.31-1.96-0.7-1.48-0.45-2.41-0.87-0.92-0.42-1.57-1.2-0.64-0.81-0.64-2.1 0-1.93 1.43-2.91 1.46-0.98 3.61-0.98 1.26 0 2.44 0.34 1.18 0.34 2.1 0.92z"/><path d="m124.22 16.94q-1.79-1.74-4.4-1.74-1.57 0-2.83 0.73-1.26 0.73-1.96 2.04-0.7 1.29-0.7 2.97 0 1.68 0.7 3 0.7 1.32 1.96 2.04 1.26 0.73 2.83 0.73 1.43 0 2.6-0.5 1.2-0.5 2.02-1.46l1.06 1.12q-0.98 1.18-2.46 1.82-1.48 0.64-3.3 0.64-2.1 0-3.75-0.92-1.65-0.95-2.6-2.63-0.92-1.71-0.92-3.84 0-2.13 0.92-3.81 0.95-1.71 2.6-2.63 1.65-0.95 3.75-0.95 1.71 0 3.11 0.56 1.43 0.56 2.44 1.57z"/><path d="m137.54 13.55q2.63 0 4.12 1.54 1.51 1.51 1.51 4.17v9.02h-1.9V19.71q0-2.07-1.15-3.25-1.15-1.18-3.19-1.18-2.44 0.03-3.84 1.62-1.37 1.57-1.37 4.17v7.2h-1.88V7.5h1.88v9.58q1.48-3.47 5.82-3.53z"/><path d="m155.85 13.55q2.63 0 4.12 1.54 1.51 1.51 1.51 4.17v9.02h-1.9V19.71q0-2.07-1.15-3.25-1.15-1.18-3.19-1.18-2.27 0.03-3.64 1.4-1.34 1.37-1.54 3.7v7.9h-1.88V13.6h1.88v3.42q0.76-1.71 2.21-2.58 1.48-0.87 3.58-0.9z"/><path d="m172.21 13.55q3.42 0 5.21 2.18 1.79 2.16 1.65 5.82h-12.24q0.2 2.35 1.74 3.81 1.54 1.43 3.81 1.43 1.4 0 2.6-0.5 1.2-0.5 2.07-1.43l1.06 1.06q-1.06 1.15-2.58 1.79-1.48 0.62-3.28 0.62-2.13 0-3.78-0.92-1.65-0.95-2.6-2.63-0.92-1.68-0.92-3.84 0-2.13 0.92-3.81 0.95-1.71 2.6-2.63 1.65-0.95 3.72-0.95zm5.18 6.55q-0.14-2.3-1.54-3.64-1.37-1.37-3.61-1.37-2.21 0-3.7 1.37-1.48 1.37-1.71 3.64z"/><path d="M196.37 7.5V28.28h-1.88v-3.36q-0.84 1.65-2.35 2.58-1.51 0.9-3.53 0.9-2.07 0-3.7-0.95-1.62-0.95-2.52-2.66-0.9-1.71-0.9-3.86 0-2.16 0.9-3.84 0.92-1.68 2.52-2.63 1.62-0.95 3.67-0.95 2.02 0 3.53 0.92 1.54 0.92 2.38 2.58V7.5Zm-7.42 19.26q1.6 0 2.86-0.73 1.26-0.76 1.96-2.07 0.73-1.32 0.73-3 0-1.68-0.73-3-0.7-1.34-1.96-2.1-1.26-0.76-2.86-0.76-1.6 0-2.86 0.76-1.26 0.76-1.99 2.1-0.73 1.32-0.73 3 0 1.68 0.7 3 0.73 1.32 1.99 2.07 1.29 0.73 2.88 0.73z"/><path d="m202.13 7.5h1.88V28.28h-1.88z"/><path d="m209.65 13.6h1.88v14.67h-1.88zm0.95-5.54q0.56 0 0.92 0.39 0.36 0.36 0.36 0.92 0 0.56-0.39 0.95-0.36 0.39-0.9 0.39-0.56 0-0.95-0.39-0.36-0.39-0.36-0.95 0-0.56 0.36-0.92 0.39-0.39 0.95-0.39z"/><path d="m224.37 27.27q-1.51 1.04-3.25 1.09-1.68 0-2.66-1.04-0.98-1.04-0.98-3.11v-8.74h-2.1l-0.03-1.46h2.13V10.24h1.88v3.78l4.76-0.03v1.48h-4.76v8.43q0 2.72 2.02 2.72 1.12 0 2.44-0.78z"/><path d="m226.77 13.6 11.45 0.03v1.4l-9.46 11.68 9.66 0.03v1.57l-11.93-0.03v-1.43l9.46-11.68-9.18-0.03z"/></g>
</svg>
